<mxfile host="65bd71144e">
    <diagram id="HIP3nbAZw_EuaXWnEj3U" name="Page-1">
        <mxGraphModel dx="939" dy="656" grid="1" gridSize="10" guides="1" tooltips="1" connect="1" arrows="1" fold="1" page="1" pageScale="1" pageWidth="850" pageHeight="1100" math="0" shadow="0">
            <root>
                <mxCell id="0"/>
                <mxCell id="1" parent="0"/>
                <mxCell id="7" value="http://ics2o.mths.ca" style="swimlane;whiteSpace=wrap;html=1;" vertex="1" parent="1">
                    <mxGeometry x="45" y="20" width="760" height="440" as="geometry"/>
                </mxCell>
                <mxCell id="8" value="Multiply" style="rounded=1;whiteSpace=wrap;html=1;fontSize=20;" vertex="1" parent="7">
                    <mxGeometry x="30" y="220" width="110" height="40" as="geometry"/>
                </mxCell>
                <mxCell id="9" value="Your number is 9." style="text;html=1;align=left;verticalAlign=middle;resizable=0;points=[];autosize=1;strokeColor=none;fillColor=none;fontSize=15;fontColor=light-dark(#000000,#FFFFFF);" vertex="1" parent="7">
                    <mxGeometry x="30" y="280" width="140" height="30" as="geometry"/>
                </mxCell>
                <mxCell id="10" value="" style="shape=image;verticalLabelPosition=bottom;labelBackgroundColor=default;verticalAlign=top;aspect=fixed;imageAspect=0;image=data:image/jpeg,UklGRozQAABXRUJQVlA4WAoAAAAoAAAAVwIATQIASUNDUKgBAAAAAAGobGNtcwIQAABtbnRyUkdCIFhZWiAH3AABABkAAwApADlhY3NwQVBQTAAAAAAAAAAAAAAAAAAAAAAAAAAAAAAAAAAA9tYAAQAAAADTLWxjbXMAAAAAAAAAAAAAAAAAAAAAAAAAAAAAAAAAAAAAAAAAAAAAAAAAAAAAAAAAAAAAAAlkZXNjAAAA8AAAAF9jcHJ0AAABTAAAAAx3dHB0AAABWAAAABRyWFlaAAABbAAAABRnWFlaAAABgAAAABRiWFlaAAABlAAAABRyVFJDAAABDAAAAEBnVFJDAAABDAAAAEBiVFJDAAABDAAAAEBkZXNjAAAAAAAAAAVjMmNpAAAAAAAAAAAAAAAAY3VydgAAAAAAAAAaAAAAywHJA2MFkghrC/YQPxVRGzQh8SmQMhg7kkYFUXdd7WtwegWJsZp8rGm/fdPD6TD//3RleHQAAAAAQ0MwAFhZWiAAAAAAAAD21gABAAAAANMtWFlaIAAAAAAAAG+iAAA49QAAA5BYWVogAAAAAAAAYpkAALeFAAAY2lhZWiAAAAAAAAAkoAAAD4QAALbPVlA4IPzNAADQMAKdASpYAk4CPj0ai0QiIaQTKVZQQAPEpu22N07Hb3D4uck144vMHigGeaq7ow+leg/9fOt39AD0YMrnHrh4DZkmY1D8Hy/9z00sw+o/2/+P/eT/Ke9Tyr3y/D/uv+d/YX59/7fYR8R/w/K45t/8P+T/M/6Ef6r/0/4X/ZfCP+2/4r9mfgE/rf9x/Zv3a/939vvdD/a/+t+Y/wD/m3+C/ab/mfDz/qf/V/nv91///kb/Wf8d/7P89/pf//9AH89/w//i/P/5lf/J//P+R8HH9t/53/9/fD5DP55/jv/v7Rv/Y/cr/p/KR/a/+J+5//R+Rr9of/9/x/+n8AH/29sP+Af+z1APTf9E/xn97/r/67ebL96/rH+H/Xj+7f9z/I+4v4j87/Sf7t/jP7b/cf+p/qPv6/YK/r++/Kj3N/jP1c+k/13/Gf3b+0/tB+Av6j/Bfkn/jP2X90/hd+5f4P9rP7f8gv43/GP6x/Yf8d/ef7Z+yPu//0/+R/bDxzc6/1f+k/Mz4BfTj5J/cv7N/kv9l/bf3T+eT43/B/5D/D/6n+rf//5K/Qf7J/gf7n/Zv9f/Xf//+AH8R/k/9n/uP7Yf17///9H7m/1vin/Uv8//y/8P+Z/2A/yr+rf6r/Af6f/2/6L////j8Yv4X/i/4v/Of+f/If///1fGv84/u//E/w3+i/7n+Z////l/Qf+S/0X/R/3X/L/9T/E////v/dP/+f9t76P26//3ukfsh///9ae/e973ve973ve973ve973ve973ve973ve973ve973ve973ve973ve973ve973ve973ve973ve973ve973ve973ve973ve973ve973ve973ve973ve973ve973ve973ve9mSVgl0stgpCgimGqWDZBGmSJxvgHza1tPP/PSYKAis5pwkS9YZtalrcOqn5KXY5lYX7X026vST+ZANE3iMdc/PKgq8M9jH8DsTaX3u0ocQgMWCWf4+tSeze7oQ/cem10QbuTyUgCu5jpRwVOtKKGqfWeheA2Pz43AkCW+FmcKFDXQDkVfo/x6jekkI22RtUng6CxQDHu9DGtKtKh695y19ZyZrQuGZIy3bwyUwulwi1jRpxECfRRQkfc6ckOfG6c5znJ5tdGuWQVP03H8UCbfqio7K+xG5ewyEwQvqZ87Emd2ZE2BI2XvLuyy9LgoF9GnpvZO6XsYdzPr+VTm2OvU7c2kilB9DuqUtHsZZHNdAyzKxzi1JaXd/tdtSKaphMcfHPQypGsbh15TwMomtpfe93DA3NQTKJFO2LJpyXThEnY4+Qqg+q8Fu+EuwH88Z4zJPjKs/LgDVKJWGAu9iAkAYpukyQ75mKw9dVfI+bNZTl/VBFatEadNwDvX+nwiZhQontMBADI+gDhfE/A2ZqnQE45leI0tGNzu2q9ic6fGoTqN3gfB6F6c5zjX/sltBSs9vlobQJed4I5LB5im87ZSC/FUB1pJkbmRxidDuq48nT79iTujjcRAJ1ebKjNw5hsMHMQc4KN3FqJ4v6FS+Pqmcny5jU2hqQ2tgVzjVbtkiDMutQhtG27WaSYGE74LZiFsUvUmI0/Y/E7cMiQb9FhNuc5zmZQs9YXat1vGO7n4XhicS434Ho8EorR6DtPT0nfg4b+e7KSnHqYyeIBRMzOqdydCeASxL+EzfxleibQYvvZkUwsqDhgGWEdUeUZI9mm5ytHJmKYbRKLXFE/D9uGNKcXJ+suTusSjdsRFw4XjhbHbbLyoNZfhLgWH0Yimnw+2c5znKr3HVmfM0B1M52dpSA6ny2Nb2rwL7md3SQFA5J1wATOwDsh8q1MHQbL0N+thjAOb73AmcElrTKvNR363VZc22JmCBmc3KnA24kmexs6HYJdpzaOeOQG8Ta3UNsgZ/ynklxxXV9G0HG7W/Klwx+dOqCYgputluSBO0RPyM34rJzmZPbl7BjIBs6EBIuqi++c/dOGVC4GyHPZZ4lijbltRhMmIXr2h92m3NgyaT1xzQZfeSSgnim++1JsKF6m2rJFN1SU5ToYCzu4zFG33aw7QK6fhvAkoPL6lOrGh1qT6Me5a6FWQ/YssYmfHNGXA3m97c5znOJ+B8uC5CG5ngCR17jEirkfM27vSkUymh9sHpBuOMPyx0QTXdzwhtiOECyuYbi9DuP/kxwSV6Yh2hy7MEWYhxXwwvW3N3WKff2Pf9N1QFavWxu5QWZVs2kldE06tFkdt5lcu4uKt9Jok1912lFnWWC9PjOomoN6TRo3ryJHkJUqyU5jxxYmBFlB6zvjR5aywIe+I3AgeoTXa81Qt9973vdMPKSIwe+FsBiV7ttNtAo6FmW/HDXfa8g3UGf4eZFvxSTeHNTRr6210POBaiXSmnKLKbJtsbASnuPg8o1YkwhBVN/x3GL4/YoR0sGvhpOBXAz7kHXO4LRPdwZ7wLX7aMUN3UVk9ZDXxF2d801co4PEo38RVox9aGCNk07bNZCftS1VziwQKMCcyzN6bYyfj6KeuNuEGkRH9H1qknuOxFaaiUH5P07u/mELwAs7FkLDDPXOZ2PsvqlFEktIthhJWZzktR3gBIjRn7u7dV6la/lO+ZpQAuxxRquHLideOa/q8cRH2wWqLsvtMZznObvfGYu6lkxMPcJ5cxpdfB0pOBuWP4u9eN+4Q6XgGnggR1bYWUnnw1nNFZGoaeiu30Y+qyDLV5N2D2NIVUgerOecED2gs1ShoAxzeTNU5yB9Oc5BKkkgNZ3Bc5I48uv/P/icoYj+8xZ5bpS9bzuIxQ41kS4A+QSxIarvo/0SyfJWsheWVWYZVJrJlXM0td15Dl02NbsFR2cEtoqTQJoEqCjLckHzmV46DbTILwem0LmjalUzi9J9CgolmqMw7u8bZ5sOrTuD/uKcfPfptaFAaOAvL9VtQ9PyVmp/7PBpq35yc5zmkUd4LnpykA4eF6k+9P9VEK+cM51X4Ih4enoHSBf7sbEKxfKHVrELhn3540MWfvQ2sX+pd6DQoZVzujjBu6IU5wYZ8ziEq7Fn6547DuMv63EsbkgNX2iGIHsXQdrxKta0C/dHudD6cCF/lymaWpM1IOh03At//2X1D1XGa6qv00PWE6spznOczUrPj2W61CMZ8/UWdqahIs/l0Nm/sfG+mHQHebDxnaDuwzIkOMOrqhHCrW1S4jq82HRmF0vfdS2NGgTNJv3Gh1XdXItteU+k6D3LLW+elgBqPbc6w+PyeWUeseee7PjGo83CWxEAxhTobiYgPB6rPrzA08hH/SWW9k5M0aZtL73L4kr9Gtn8yTdAWPw2VDNtxPjEiLZdJ1O4SjyhvJR8cR2bCqnl7OdKnS/yDwVreFomf2gtdg6ybqk5Gxje64ZWQJAGOPASV4ZQJry+xg0SmEbo7o3FdvHRtC0EsG6rOOS2YIt7cp3N8OXLj/FHO9UjDu+v6pEOdc0t0PBfkLRZfcs/zVCMgumby2aS0iLrAM/FRpznK3D0NfRa6/ZDmsvLAYKxnfV1rvqvtDltqTh6YZdHSEVyVeRGLz/b3/cxGoJyGJQLqMLeLpUUZe90h9AQxez2M2wHCz64LWMs1UljLaYT51I/5o7agpHv8OowI0Ka+P/xgzKfyK5QV7puTnOc5xbU0mETVl6lQv9ypUqcL8fn/gQeQLjkPhHMNR74/TPijpIe1Wz7sdgkLAdW420AzwuUms1ADqHTEpAU+yBQ2NG/oxm5GAP+Kbvkdikxu4tcE4XMdzBuzs1Mckwd0gS/VFAveJ44H6PQ2P01WXtgU0JwnTjA9gDgiCzAWU2gEDP93+lJoNordnAmwsdI81eaRpBS+973FVqWjad250xzNWxNEpo3Y9FHE8Ry0x6c1/UOq46W01S2ixmvAqNOMMHqrpf5F9ilcVC+MqM8OZNRJ+ns85znOVUW/NchL/8bNW3egLEtfYbXDIOCuLw5RWkbaeX4eWpbUa6JTlJ6HvVhXlCVbi4dQCdskQFdVYoS3zB633icO48s2yZ8g9QLExtMB6jEfbeRkX1RX8NVw3kuQaBd7DolhAKfl+MVRgYKFZzSZABTykIbIT/ZhUnJaGv1CccDknliokmnbVC2S3miBPT0ujM75Uc/p3o+M1/NiUB6bf/E9aXDs1byon/dx9ZlZ3SmLagGc3SMves150agYKF8RSpbAaSBPwRv0KnKUCaor22AbURzbt24thv8FJF0MW49R6HaG1lGaaxWHqgK3C4ukUixFaVum9SWDrYOOhAwH05zlV7PDctg+rG8ujyoLOYJ5nAULVhrHDgHWtmO09CZnGUXbNQnLzKWilQS5X91dc+0S0XS5kiDoYivVGNdRIRCd6wib0yN1RuNdvC3OBEkiCcjA2rxkuePWzUAGo1+ZfeF6vdB7hZIgp4vN7i/TUI96wq5Nu1bT6LzXY4MV78s76XB1DEqK1LeHaDd586PVw4ci9KVHi1x/hWv+RiVMCnsJ73ve6wBqyeL9ttYjdavuAcdrcRxZjF9Vb2vaCZCp2XZVXHDuYBoMp0UU95j+jal2EwYCKnKBbI6iv+oDrz9PaE44JbnmezU/IKXp58c5KGOaBmPhyjBIsuX0Y0if9QaL0Cpn+DWhVF0p0WWYqSDzYxjGK/2P0qt88dj1nhPiKwm6vR3QGbwyzROTxY7zdcNlGba9K73Qu1ZroZmEjJVG96A7H9p2HMPxoBRWeo17QTokyn/vz6gwAQM3OHuuL2bVujVHm3IRZS6KZ1kXUx6+Vvur3n7x2r0NVSDl6DTQUBuOFiDBpwCuh43m9aWU2ItlCI6M2KrwQqn5ubHwTd+QIFFkLoRlpAWz4bkLPtznOc3SMZZhI1VUeIp1InNoS7GiM/7iQHAEETxHM1+i5DFp9faO9JGfEmN7VDiVV11PjlhtoxoAoxaSWbxrQoD+DMPuk7jfJS+lpIHnSUlKf/CsXsvphoCH2erUbuN8fRfDLqkhdBfB/GcOsUdfT8EpCyR8oUd6m5JhXAIWeE7QLhctbSAbFDDar+lKUpRZ4tbRKtikeI94H2x3TQrxQIMTAIFk01mPNt7IdoztdTQlxMwV+OMwPdS/tsAJTMgeyGjEs9tpS4RjrVfjJiKsKQq5c7jIpzZqc5dhDIT05GEMhevQI59IASlDHwUPn3pjJfqSQskO6usS0kNWM2bYfw2fsyJXvJCl2StAozYMUU51Oal973u3Tai3fsrt/uc6GmBN6azdBmH7Q2h3gvVvxEBx+W+EDMqYxdxzco/1wRYhxOpHjIH+slFCO38Hi8yUR8CHZbw0SR0d7gHwck0/huOQWfzNufM52i8g+XE+flTQTpVnRaMlVGcFoxTmXqzbSm/u7e42rSVe4RL59ClTmjwJjbc1kb1Qa+yDc5u/L+KbFyEW+VRddl4pOl9n2BLEmEIECZ9WCW4wlBnyKgQqOKZoDmSYZZ/eZiaYQtx3vhtdQwGvzhcopo89P0wBgzBmP/zRssSNt/CFw7w9QvsbYWfnD+1tS7E98HzQ7LoSJ1pQ7hyDS60zgu1NgLtW+41rt08RwqKj7V7PTALy4US8iTCEIKpuDZoSh81hAwkoFSXBfTfLYfKPf+Y+1hUh3eLL8grg6T0xLloqQONLPvbPlHwAYUyKTgbdt01fRPWL15LarYtEfa9LECLPWtUdHXZVvmKe10j0OkILtlvJaslues9EGvEwvnTJGsLPq7C7wD/lBaMJJzmL+hF5SC6piE8qsVLvvbjuNqGpeRpzqn4lYSZ9nzGPxxA7Z6f2zKwfgnHZwePccK1f18/y/3bqru7aX3vcVaHJuSxDcvN/xgNH4+18z8luHwYibdD7lMhDQGOKMkbpFA1v0RT5T4J/SLeF/VLqr5p+5RsciiYiE+qNtdnD7O/sl3zN/xgd17PErXNEw8H6ClOj4rJznOc5zoLqNOc5znOc5znOc5znOnDe973ve973ve973ve973ve973ve973ve973ve973ve973ve973ve973ve973ve973ve9AAAP7/2vyAAAAAAAAAAAAAAAAAAAAAAjrFPsDJMDd1QzlcP9DEISc68eJp9L03dVI4n1k7Gb11ahXfeVoXhDykg6ppLfxxKZYvEpliqQyEwG6F8aA2WAcKzrsKMh2mCnJBaY5WyT8HR8rfgFg3lW7+KH9x87Ete4C4Yaw15ieu9TXBj0CQDn2PtDB1QFaD+UN9eWbSSXBeHOrNVa1cR0ahBkdR4haAnnmI19Ia8J0P3+uPpS5zf5flcTnLs61GssnoY2GTNRqLHDTfKUhJ6OaU5PbUP/sEj9gYxgWUpnBzdgTWgXTun1nx5UiGRpbc/omH+a3MPNVhQLUwwvqnvoFNkcIkNvEyFWu3V7BIimoXr3XL0ZbTMFxUUAfUOXD6j8exDknq45bQjxmmlbr3m8Gz29xIHrjiJ0sJ8MTgAZo7sOyTnzisA00cIJsDHZdSWj6Wl/Jbk/DPekTOXCyvBpAIQV5DOIadQNlMH0aKvm+skf4Pg1+PcmxARXzX5nDp1Nzvjxj+YOHAHOAV0/6zFOd9mHRqvdsueQDorRdEtMaoW15dD7qoSv6VmnsTyj4QbQET2cWhyu56LPzwWj7ULLpsdNIOPNLjNZlr1MwTjJX3lqF4eBA+Rd+2QuEu7Ky1zrF9D4cfwCeR4HBNag985S+xpeDa0V/aDjdhz4iIW40Voiku2UztPeQ6j/jqW7RxqOs3DwQ+3rkY3vCJlBeCIfv931MjAANBZ/8YuOSeyF/8dvbdRLr6Z3V1FKh36F7WBvwCCBZc4clG+y1eSJThm/RKi9wXUrbhFqN0AP/eSrZ+/KtpaqL5g1j8rQv14p43LDMWyi2bHnsm3QxxFgZRPkmJpjdYtAE9fl95Ip8gw70uzSspP8zSuTYwch3WJuBtvL7Ad9ip50K9RjHJQBMkqMzxHDyklALVk5e6XEeKbM/9iBrQv8DK0k7XDnOBXdJDXgohjNTxTdXaapBtbi5K1btP65Exef7eGMisjq1XtLyNqslhNphH3ka2TGcW0S2WhlmA0+ZdDRwXdX6DBmGWyn5xcFewvvdBlGcJEeVHeYg3RZJ5FwOcdy0uKt4Wjwxgo/FCUL5xTots170eO5WePnG76yeeu/uqdEOqg3TM2u3+ExoYVg2xrxk3UAQvC39j8lt2mukpWGtgGoA2n0bpSol6Ap5JaewTNFfweVYuLOmWRKBvI1Q3wLruHMbAo3I0XOeLAR2CszBte8Y5JRfu5tXY7I0Z81IzsT4I6oCG0w7R5vri3ZjNQJqPX8CsZ6JfjwD1u0rKFR/lPed0H6ag5eiJArSwPWu77NGRgYzjY/1ml7Qq2ho81TmLsSIfy23nX/56lfnGYmJ0AkJp3gFK95eQ0kIYwCIm25bE5PZWe4qowrBCONCnvuRF3aqvZjCJjc1AptNEEgGGPEEAcEhTvqagjH2AlV6MShvf8L6ihhC9dUaxgWYPK/VfRx+AXLxjFxbd4ZCB2D9Kkxm+VaOG0ClXI2wkI6NNSjpFVLIY9Fo6NN7F3VsR/9mCNDRqfwl05zFkVGIn6I66T49psVo7xGRHPMuhCV2YT7D+5tSvsjMeqBzvAVe9AQTVt9Jv4a1eI2fcc+KIcuGVSu2aybS/Zk8E6yR9xDILjFG4CgWG4FtJAqU6p287Kr8to1as+7JjAYjgzmytLkppm0yzEHoQapASa8OXrpXFoIPlX9wR9C4968QN70pxcDg70Q1nLwmWfWuuk9p1epD+pqMkkNyhThJ8ejuVrHS2LXaePFaja9VxTAze0EUwXy9cGSvXW1j70eG1wyJV5aO7p6KYxEWAP1ggf6MLD0WCg6XIrrbv2RW5XOyyEzh0lpKvkvPK3rOQlcgNetLMeKxJLg/2YloBPwWbUEVRVI9gRFxCXp5Qll4tmtQgL3vbO8RqNdtYuTxlZLKKsB0KbcInVCCgUTIQVH+t5FSCz7BO+hFcYP5Ip7WZkb1UvcDV9NBRnIvYEkrXqrh/YQ3EI6dQ8Os6GtF9aSF56TOrhyJUYNgLp7sDuyGDLLAGvU7E92EOIjr0Eaet0lWqB9VxhiJbeZ68O1ZCHhqZMLA5K+HswjvYgx4pI2tbF62K1pLpGGvW/ktBVHy95W2EDJcyk6XNt5ceiVk2GgiFtliJjABmV0KV8ro+F7MElsExiOSSKI6Z8qnF2Ok64La35mthZYU5tfNMXbAjjy29EPTQi6zQyeCzvE/dqP/nmiN928SIioHV/FHQeHsNKjgj8eHXgu9W5x8/nz6f/eb9ouz4FIIcbQOnRpRwWHSDwvvM1dQ1EmnW4JvQYyg2I3FJctPrHAu/uI/lZlVoRuxyCaxiGMNVIi5n24VpSoVGWse5vQ3AjH2D4zJWpg40kosmXLp6f9BW2BsLRH7LGLSO03ssvZ3u4w78dou3L/CCwdbybh3YECF567s5HKUFZ7wDSGWmT5PcNhaZHsKGtDlxcKN8aCl9sdmkWVthRKKjAE7XGlV2G65lKeHyLhkMlSXTMZzx5YRhtdxDtqvzWZ0rK9gs/Qt1q31UGcLfZL4+YnUaV1kC8H34IUA3GCkJy+w2vmPdapGujEktRciqLGfrd0DeTjPC0OHkIWstqgVHiK8VkPow/d4/l7YSxeHW5/fEHzZm1xs0KM6nc+g9o6z5pzOYVGu8otL/fWd4O7gHJRy5WKTG96SvGHpnmz1ng5H0gIo9ITrGTLXkUjX/DDYYekkkSx4ajWNs2pE02QPJpL7QP3NPOsyCHGfpbLeQXh5obDFf1S/GOUC3GgqJflyxAHB8TLypHzt78WtSrTIN+3cgIwTPVfNExxQPBb5oqlBwUNrCq0MbLIK7FZfJUueiESsL52W+Hl5iYzrXQ9gBg13YDw5Cj17q8CdEp1dlSci97ULPnReu04X1I4E9lXjCWpDO9/X+LMzyiH7P2cX5q+poc+bSYXA04GXf1QbXMdlBVoSwH3CmWnbc7Kmwnaj19P934G+JYAGl290mBNVKtMX81xCFYAxZvMOuniRFJxpYa6xDEMQ+hH44rPD9XJTpPj6oWMiUceEE0c4aX+YntMEStvZlXuL4qRXg0XpQiF57d3+SjGdOnrmxmKVzYzHGpTtyZTtBv3qMOccUqmhV5Rv8bTSc/CtuL1CSP8Ye1qQMWKTegQEtIp2BLTGvn1f+ZwmEv4oND/BVNv2pgXVm7ynHgCASrzB4QSGbEbWedyZPM4hhCOrFNRRJTWBZaDJydvpI0vLq4EyuRgTWiIA7JY2Wv1X4wZJJr2+40NN0mC892CgfgdqNHEFtzgZjTQGVWpiOPiGiRnd3kqUbdCtG3r5wZ4ASkOyckpEL41EUTW9x7lyNNsxZmo6Hz9oVVhRUbujSH2oz8/dn1sijpaILX6YDvCOzSrWtA9mnBcxw+H5kO7nMmSob4jm7MHRSBXfQakrW+KwtHwGL+OErjUQVK35yHKgcv943rEgXG5Ur7dOLlmtvp2kSt/uNh+ZAlnbdvD0JZpbDj9C1KcrMwpVdemm6m6seshNURKM3MA3HtQk6fjv62hbl0rpmnBmsoqDaKvpCoFSUtNbnkcJi6Ho4/ZcJQU2qNcRha+Ak/1gEwQRM1Rw8JYPjbqQL0QiAyq9fM4Cecpo5EwUJK7rbAAtt6myIEVVfiXfUPOZGZTluCu5H9LxDDPErt/3YS2l4HQ9/bwZaTr+tPv8nz6dNcCvXIFtYX5e7GdO5MEkPtGg3/hQhA+AVzrrTlOIGdzivgDSCv4hJtOz8xSKwK16OxxrOLyDC60n75w8AinQsAQqqSg4w6bPm7PGjfyohDCgDoi9YzAAqaqd2KRd0vZeahsopHnjhdV16CDQR6Bv3CAM2xbJktH20AFm8WauRpbGU5PSqlg3IwjhCujrN1DjdpgYuBWusAdkwzBJTsQzzHM1kvXmp/xUxWr6+l8ZjFKw3ISvFeHwEOxIAwgGha6YPbhEEURAlxnnZHGL3nFGgoae09bmdCI96r4xAVHb2CwurD6owTISnSx2aevhgqq/Eu+ogqLeaCqXKEjsRXdsrbOOK5bCsAXHWgEvxpUX+7CVzNAMN4M6gUDgB5Zq8f1uvYPPb+yfogNN2Euo/aEri3SYrfdMNvt3VCJyntNFeDKj6ax8cGnLNQRguCLQIDtwSOlvRocQjaw70Ca8JSWyUicNtBns1/NWrtJSBnGZK0MfKNe94ldqU5Dp36s0Z5MwxP4Y4pX0x01KizPtIteD13GsVyq58GsvNAf2ixMxLJ6ijWrC3r2OYvjHGHRfA2O6w9cqDrimLfywzEuXAFFlITY3LKTznrgRkb5BpkSWvI2LaC++5lX2r9ExFVcCk41ZikJggJIs/E/WEmfkeYk138yMeQtZEC/WPDABLcChmYpNEfEb6V5AXhOsePq+iwAP9dEW6rpKrEOOIQAPIv4yf/+478O/Qz952epVph9mhvnsEj8XetBQW4nilU33uBuJPK/NNDmggv8VfgD5Js5HDjZKzijiJ1TdubflHRytnh+md7DXV9QI6ztkZZsAtzXE30Sa0rFD02kXqIeeRBdDuMr2Ys/wbVhTs6n2G1HJ3PDVSXTiV5IGHFk+H9fNhkVl4oXnHS4nlx/Yn+EL88ZtIg1oWKx0uO7Y+m139XK+DIUbusW6IJT38wsoQoFAcWNXS3IrB/lDgPDueFp1RU0p8fUFBImiJ6AhbIh8NDOQyFxXs6RUl6mCkRbojD8vNoVGhwQRwVptSKd9TEP7/zfBZ7XYXVBfnwGTioWHRTfhbE4f7tLI/Y4JwYp81OolCEew+AjyjGGBREsHpwFDtp6fw6rYLRi/5L+KYUHtKyT0tIkbGNPpsyGR4sPfD71iNt77gXeIcQDkGA19WpYw93mr/Hox6t+G4M4XSKY+v1p6+amxo4UisGTvFN3JgUkLPLy4FlmaXnaGLiCrXXF8xXyTJR2uFNgMZusxwXspxvDoJgfVdsu4Uwc3CW0B5Yz20IyVjSg6iwk3al91K9+3ASjPS9c4oitFGmhAtRUNBXKhrivMHHFLFgqBa8iMXHuRhhM9QDqLtkt3In8Vj+S83I+HnEeUEdDOr632cuWOau/5qoOuTo+qCvRm3bNSazSZsil603EbNmOsihQI31j+kChIC34GZzt3Szo8WYuvqW46xuET30VmIMMfOUEnbqzAnx7MSJVhAeVkWYCDgaU5Eq2ARCR8jHAl/43cKh/khKcsh+gzLKbIgmLSsTMu5h/PELkXmZbvipKjMNl+iqBN3Lma83ImG5d5zV7u1aaLU+fGFApOxleKBVv79K+FAlsiVmw9cTGxebUzbdN5ZNYaOXhERrvo+1CE3uWFyvMUpi6QA59+TvsaxZDyD6tAkxPPfji4unqnFvGBlSI54s3KHh4dJk/vkxZMJez3dAz8Gj+cULO4tSSVjn87gw/YjueP1Wmg4FRb2PshXFT99AC6VGe1ypMq+LP1x1jwJ7QRPugeTMCzrRbIpa6D0Pxk/L9UoW9RiKmgAd2zwAEVlr49n5+0fKPCi3LFMzjsu6HJQybcrPbXp2gmWzqs3UVRq89bFEl3qIaEdKcuaSGpBqVLRoyH5JQdadsNptr1VHcwM//46CSCOcb2/6/4tm301lNkDZiBzeLygJf0zdVWO3MD+nJycX0sbjvjTnnmyXz24DeIWfikkJ8C6KdGqF01K+J4JV4fQdAcVwvIz/MPuVpnCLYLID9fyrqdNy9nqqBPdq0C0eSrwyOssysw6wCDHap8PrIGBVv4AR/4/dwlPQB00TzIc8NT+JWk1UBiw6UQl5XDQ7dF4Zl/aOFKQFitL/38HEnrLif5RBXQp1bLAha8J8jI8G8edCEPVg4jMHJ7Ft5ErOgeObarE6zBImSJVCb3B8g1Hg7PqwQ/9RpeFY1UgxRHsfn4qKqEmhOizNi9awETHD6Oba0hGQLfIeRNFuRQxMsexrnCg39NxlSOGNMHmd+W66TxoMJVV7xIj1zjUe8f8hxmcR51+djKi7+3askpDRh7wylZyH2dWq6r1nc8Bi77K3bKysb5Vvg0trzaba1b04rBc2CVvBrgifXyAmq0n4ERpOg/0bVu6SpJhtk+AdN9DperxOPa/yr2LOT5t+sdux/HssUy2fUULkWtSgff6WW9vjRr3x/BXo6KJh4oM/R2IO5SOyJPNgwqASaZzSrRpgAHXOn8MJafmoQ2EZpC/RlSL3L4k+IsRdWo65waBWfj+ubzPAy/zg4EIU+XrXW78ZRoNMF6IBSxgHQ1OPH2kL4TdJOnQOh/NQcNctrOCG7dLWAy37orx4JochfJnCtBbvUFaTFguWIAOf9ZxvwpH0thBb07vrSbebetgPr3Higu38fjJNtO5nDwmUADDKiQvc0EAMV1+rm/YwaqXS6uLflNBJ223bcrCoC2aaNUKnxKbnr0Ujymwe9tu+4oamsAFaw1T0YZn1rTdKaNsGL7MfJgWeBorlVbrG+2CdvEpZl/m3jlkqeBbt4unkbnYTOLvZOfxj9Dc+27j4qCrnw9Iy8nILhVz9kd5RJO/m2exof47jfc37cnBmTNE7xH+wIrbokGW8K6gyK5fQvVU88fM6zKA/Bl+nTmjfKfgVFB25E8dAqJ3T0eCMO1/04Lf1vn9m5ACzq3doF1rmOl8AdHvUk6/QCpaXTvLjjVtgGnLEHOWodicKPSdToErj3kEZj1oXrCk73hgmdUu539NqaBQ2ykkx18VUlNFd1CupBgIC5dbWjIov2wdk7+id43EwXKcgJFSKqT/0TEmPGggJW/zpQYL8T2utxXzlz8ON09HlrZDNa9pC3d4l/kshqaHlYJeqxiEE4w/IKwGbwF7JasrW5X7e2ub+FVypXfTKXcQa6T9Ccxf9cjWtsUCXVk46Co1LVFe6HrV4e7uPIWmScufkTgAFMnSstxICP4n5vT0+IRQ0CPbm8XhjkLHhjUI+wiXNXn6jTL0Q7gTyG/188sdZ68oAT9M1LcL/L8cQoYBJQvWiroEB+RVYeoM9S/6LpQuXFRybgo6J2Urm6S0z1EE9JJqxTjcjaTVHkwGhr1XNkkcvD3OiHYNB+4wbMZKpgV8HGTP9bvrxc2JVwa0TfGDb5XwqdkdmLzn3uE1MrZQEnQXWqqzp4BTu7t6ufgDv9+wicDa/t1UvANGa7/0bitX7FGBlROvScBGewKhlBSK5eQL7rhc81OE4TKREKar6ORzT7s7Z2FCuWm0xRsembeFAvHqX+emYgruts9n8oQUcOoFTJgli8OEqaWVpzLXSTnEkadj5Y0bub//1PdoTCVIsO8HVmASjaAyccpwrF6h7FQO5fMehqS7tGgpOEwlohuBeNrk9ODZMP9m8xZxQTWFU4DhKEHYFwOaNEpsqNU2cZVOUqT4NenFxWfZPeKLdbhuYSwpHbMfoXDJ7QtBf19BzUgRu6UMCghIue3nrJEOtG2iDWYLrebnkT0CQ68lb7PZTNEjV0HccMO3FCi4PPNyo6Xw19Co0QGTl1PuxFbuk68dtLAbg4VWLY3i+CQf/Ipv3db1f+eUfyZcs6b2Mla35WaIm1E0D7Bw6aMOjoUUzS4YMia9tpzJv8YtNszqVQGQpQz8XLKp3VNpxDwpM8jbgs39/LDRvH55zCkx4sG2svBkT1RQFHkNT26Bx5MyRPBR36aLnsmQ0QBg52pmiD5SCE6woGpjuxdzTChEbV5MbgjvqN/+0shL8lP9E41Hvq1V7/t0jz9SeRftqGC0GFVOopG5G7Du4w5SUFOX/DRdg51Rj9hnxxI7Xm1l1z9tHS591zbmarW0NstsHOI9Cb1B0L4gDNVhRvqmcScBw730vIYX6pKZNElspNClpdmeEo9E/PkKVe63dMzct2bp8B8cKKZkj9nv53YwAd1RvT2CloYg832aVdRQZW+tZgd4C3s540ZFwGKUpEgIEY9tu+UL1jmXgILR3UQ3I/uMTB1LS4SJ+zeS7Ag2vz3caAROkIBjusjp766HaIYIvYedxCI9ZkRGWwZCk3QoTSNxKsy+WJ1I8XKz+ydmgLrUJ8o7lc1p6ekeZdwrIY0bnATxyl3jp0FYsiKOfPwcjfnUIbfx2IMl/hCaQB/RXDhgkuPWEVi7jGirssyk+2Daq3B8sEI17++glnwd63B5Eeagzz+NUIg3+EG2W0hBRT4UegEGbKjDgnqOzitGDI0teDnljAGRTQ0/leh6vzdeqeLPtgiigA2+uVlJQt09vELIrSb6sXkg7j44DDLu6R7OaTs/J5tn1+I41yHls0WAwxAybM92hhgpqP5QF50Q9ze26TnUgg8uu+MJuS6E9VcjJLjPkd1QyBCEH+y0YKqSBGwgoVgt5EF94KhzlxV8tYVe6Ro+4Z4OjJv9b3Tepp50cWTN+gcZw7qgwn0iJDGWgJTo+aDNyoHodywZKG57s8Uwx5cekktRboPoC2tdhWyTnP2s/ZzeBDGzEpEQ3KKnGnM1fgmycN9T1qp8LEmXqdoJ8pduE7t0uloXWzMR84zTlSoaFYqnc6Ki4S7NqGhs9+DK14kQ3uClAvOHv12y0OST4K43W7nsvusClyvNB05fwHQX22LGXBqykPk902FT2YYJoht1SeC2rlIiTtseczhyeXVB+G/TRgU6mlbdXj82JgetwKdA3gF55BpRsQHxVUwiKDwHEidDAbkibjVfP3uHg87T2Wt4wHyBi0+Jgri7gaiGsA62pE54FvYHWE7H3T0cnml47h6v8CniSUozeRCvW/i6GSiZS+IhmmlsDyksuPw09QLrpmOd89WGm3nKKNdIr7cXJSa6r0oCjR0NezPYziInpJpOQQBIiXnjp9F9N+sHSy3l+LNQNe060q+EgKHr5dUXeXXELs+yFCtkmxg4NmtNo+XOJF8R+WxI//3YvCNpzetzSEng1USaWBGl32IJwpXTktoOT03pu74ymndnftV4T7gWNykHT0ouDAjhW65EopaABHgkxeyPNW5+rgNrj7yiLj9/LhC2CJq1nHG7b6Okue+2uSYqLyzCrs8fXHCKH9Vis40B2lLhMs7zfjPKZt6KrYQS0ANW8K03EiELO2I11Be3oZBm+zhzYUANLl/NWxniH5mXt3G2DKiZqTxLS/M1eRAVlQtaIzjZxVVAPr8Goc9HIf5xAeBU9p+qPoVFeJbn3UPIAlPOZnL7EQuoCV5F15H6C6NexSyeZS1oJ1xio58u8wZvMUgIYHoSBZem1lBoJsKXjRFRXCMcy0xoaciXUUBxDSaIn1tBvodd2hp2SDxMM4xKrYJCPc6fdwxS3ZeA4buXYtVojOl63S0vAbxWJTckJSYBC8cSuavuEjChWp+rntfX2WsfFiGG9xJGJUhQf+IW56MxORAI5056ehHITfkcWZsX7RArYZgKAa0eRgDzQeMONKHwaE8gr4I+aHSBlC+PtWhsYvDavuG3P3BCsde24Isy4l+VcQ8a8nj+UukgQvNwgx0k32R+xW5WyrrQG9nZhzuqjLGtrpKkXJL079TkMbiFS+Qfqt9D4njxy0n0B7lwcg6VFKwNRXAN56CXgyl0gVoRP85WS0+qK1SfFsmbRvy0KaB7UlchiHRcVZC4HxauijQ1U6/X5dY1lEgH1pnDOTfASeUK5mc4AyN/gpRPdnejKWbqMHpzhkARZVVL0SID2Bq5quKPVEKviThv2RMn9MAEOU82YPP4tLT/UQkajzLv/Km7cGUORGUulFgVCFz+jAtW8K/lam9eaDwGb/UtXddRRxp3N3JaMliFvnLBrge9/Ob4bZDdY86A2LCtWI2yACDxQksKQ1nktT6wXFv6qpBQLyctZH4ce3hVqM5aQUv4KTrbsi0rptsGlEWiwcLFlMMpa4wXFvjs0TSXd/1nk1wIxk3BeZsS49EtntmdKhwEC/2xsvLXw9LTs81Aau7Fd5Ef1mAZkjxhjHZ9CPT6kSFgbx7Zv7Cp+yv0yeo9fVUwok+NePsqPuvrL5M4QEp/UgPLM2t2T5yjvG293R0jXSN1wOoNklyBA6qmaHgqmm8cVnLM/dU6h+o+IES+XEjYIw4akz3nq2wMqshmtm9RPFCW0nosHIuziQ5YIXHdaDYx0pXCr09+xgecvCSnfhOjPDWdV9j5wu5wByM30RcxfvIFOiLVonX0tOXBWn3T1Vyz2HvSJBHTmXVCAkgn8Clk7MHKtOu+WrzIChRpfGIrAcHl9s2fqncbmkdS8DUVe2hzY2WF5vvm48uBmAsrYWk969z/TwAFPVVsrpbSfnIbAzXtKr9ErlQvns2h03ce8v0afu6OggJ49PLbAfeCJAK9DeVZ+Z1GEnj5bq2I5lCfgmGY662VoK1C0GfQjSn3u97adZACAxPjRmWOVebuVBP8WcP11vialv4sOPkfEar66j8UyYFyRvf0xvaV1MLflTnMzWtJ1hj5cRdAVQJCURXK7fJgwgRebNrPE/IzBwEcfpNPRAZI/QqLAREoB50Z31zO0qGWwA87E1kk+vYpd6QN6BxxzaZKz/MybN/yk3oyoDGsZwFD+V2Aj8S2/PLKAAehD3Q8T8FvssrJeAiY/4ScUr3XsmuuvtixXHDBnOn66trR7q+tqvRrQYC7L8fH+m3KT6kQC5sOdiPCevKmIdq0F90CmxkYDSVZfM1VVHnfDpmk3Lc6vpYa+cEHkUArmXrcuw/MqwGVIf3YC4PrILe5IqWf4HrUghvMzhD5ueRzPsrzWWwMSv+gsaC9kuEmyTkXxUuonhA+8KkYwIxK6E2koget365WmFs9aI1XyJetz1G+tEYzk8sj/LlfnfQpZzV+QCi+zhN7tNpvxSvXkEHO8NcqJO7i4Y6BgsWZY+3LsNFoVf2THevFCuNHcbuD/QGkX5LFNXdXG86rPfevWbkgrbfYluIUv+YWIAwNqNBe1xmdzCus+j9Hgu0aZkNA+xwS3ZJCV+jsLPhvZGMNgIHhdLeDnu52PcIojaH7L3dRfkrh/R8GujNVwuuEIWmIfXE9nie3JZU2QGiaTXmh7xfYiBebewbgJja4FtzU9ZIZ5KTLbeV/QqSjvS2LJm90MWIhhvxyJQx6w9XgpxVZlUyWqvV4qW/SsSFYhPthhiiItEUX2YTYZMLHvTLMlzodODWz8Yhv9xjBBgS1m7PYD/UT2+tyQ7WlMtBpnfa0oOt2jr9TwIrR1VZoUY+lxX+lgz280sUdgiXSXeO7myY6ZK8Pjx4nhntW3Fb1lE4IQuLQEd7wCyvxEkri26lGSIwl+5XHKncHhSn5u2iThD0kDmDNP4zRA0zg/MpTdGocMkJdk5Q7Veuzhg5NoecJnOU28BMS1HO14MNp0DAn/YzM8XeN5LVHr7i+vNb1qG5nT8jqpBtIg7l7EsIPZwTPDnRqUo8cu4+ih0aGkVB2+J3nJHQs8Qa//tYRPTNwg3obL9pTk1KRLmI/ZtMEOmJ1cG683Up8Md//cghx1wkGdMyvVO3mY16KxPquum4vnHtf4OAmPgpmdgTuZl+8b/1bpPeOR16z3RhTcbfknLKEzn0aEepPZRXf6suBZmbRRD521JMz1qGe48Uu1qV/JCX8yzZb1e7p8rC166ZBX5NsChcKsJGZIHRLtUgGZGaZveGQbLqVrXqWGDEcKfClKZxmYO256XVHe2bFbsIzFsRwEfO4JVdOE82CaTjRC18Mgpu8HJtFOPkRh5gyrdvGMc7ce4KD2ZWkT7Ivc5FI5hDPccYnfo+YTBDDK4/eXwnZmY4dWJBqnBrWQAEOcrkM0DLXZDpTErRmuaX7rsnGscv9c8iGlx7Esk1l5rPhFPaFRZbrnmWsgdy76n8oeDYiNZ3o3YI5z1am7dpH2VXuJCFjIke54FE5V5leL053WWVA5rvubyES2PowjCCZ7mqNHyxOhPXVqtV5rVfUzBVSerM/OYK3smkhPA487bs+2YSys52lQcKOXrJ3EnvOCSaSOW2W3ULaCddMhdrZBYdaOjdQqz1IbhOtkXW45NRKRe+j0gY3iZ7F6IDeNhJ4pOXmJVdbfvWKhAvxp7ZNGfuWpmtqMsDjp29kJYVEtqS9CK6GeGzRYQO14Gyp5k9RSbMrZRJ5JEEE5dQ1EcjzP3QO07lumF7xczAcqUQ1K1Z0cWuyyz5eUl1wU6X/eD+nYsKoHYy8m0C0qk280SYbLlbxSsuIOXEn3zJZbYCmvIHLLrkXenG7j7JLVyIUMZHuJFAmgvuyf4ppVWRW1OrbOwzhrmPtcICJuboSAqrOuMDwZ6VRGi6R/racjHXx6sSIxWZoR+K/pv9q0Qf/JF8pqTTopK5LSJkk9nWESQalKQ0WVMBlUx3SP+F5cZTXiXOJS2afgpo7hGsW0CVJqfDZZtsXnjk1MoRD9xlGoGpN1Af/APmvNspMrA6XKp4Jy4CBKkTenAUCHFBIrVyJRicrDX3OyxdC6PtTWz2OftxBd8jilcDj7K2AbDOL2uWxouUP/JpJyiOnPNZUBGDmQG4U0a0i8CEkfd5xzvqhrRzdwmCylZsu4TCTrjhySbmUxA/BO2z3MzRxHKQH/UQLrTsKL9Xg8nOKyVvghhK11IzCV7uWmoWSGdpM8HrXXrqbh1KHW4Dw0fPVLkmWJTgsgZOmswz8gqbvfJC2Z8iKWdq3Oc6HSjuvLPFzT4Kgq+b1I9qU1RkXENtmGVbCUcaFLxQk7vNLf9R6KfMy/cYZRFyW1BI5YiIPDAsXwYGYzkaWo/kSqh+SxotFtxD1IYUMSLE8SUTjLTeXOzjh/lF6DRX6QfK5wjXkPyCc3GffkZTSalokWZgJzsn5V5Erg0Ss+KmN/BXWiQ3rxh70PC1XCWKAM6BSJ6PNe61X7yMdNF8h1SpsghHo/JU5SVPyQ185McWnUlodYIXGZ/0Ze06ywUp9aAgN90apnitvs1XgdcsdEVBORzKpg0KfELbbwuiAGblGtnfOLWTwtmin4Z655NJDp/4E5rSnUUPGF2gviMILDkuOuRLxoDpY/pdCH2vCZubdkVgWUfR1Orgj8CmUrDqGKGHUjCS0wcGtr8womgJQl+pPi1YKCYfd+IfFHejCw7Q+9nVZFPNSv/UqAPai9GcEgWcY+A4aJPfV7mCiRXLOiNtLtxSvPhorSiu98ro2sY8FfpaASv0Zc6oJchJWO8hu8bXEVoI4Meg8hMo9Yh9BhPgtmZ9kcL09N9LIUSYt7Vg+I2HHbsB5uxUlzI3jBO/VraRz3Re6CIt7IppNuw2yI4UkFboKQMSl+M2ewkxUZTDFdO+QtfYO4jI+90EmUMB4TzFzDpcvKlY4x5Ttn+2HY8ybfrnSmwGOqk9KXcCn4AOJc6JIr/d9UrXlZ7Bj5DPNOWwWHfDyeXqgz0mmxq8XtCMWoP+6nLuJjnTgRxSEqQ7uPcb2eKv47c954p8By8Zzq6nbmqtd9cItjDRm/WlYoXwDqcAHZDOZFpGBkRNlRduaaBJTpag9/ANpiTDzzU2jNhQQv1Tk/VWRCgMO3sc0c4jzdy6TvdZLr3jaBcqrJ7wGxj1Udc0VNFO+VSjcvDaKfKr6jEv6J1kQ22Golp2PWIkZwfv0aN0DGEFXfRCAU09OdMuNy1MFPLx6UA51hKUAuU0Q0YTY9rua2X1AwxcdiHsWZdC3/93MSUclCE7zMmdvUF1rU7qxJF0WpFl7oaDmoqQ+DbAbanI5AxV26UOXC/w52xCDxOC7Njch4v9l8rz3pjC4LCtvfZqNtcY5HoLHsx2B8q44RPvpqW8q6az8xa8HMWidBFonH3+mcGGI8JVD7nV3IK+Gwo67LRJdmLtP/MYfk2JZdtng3o0N6wQAQdH8VOKvyhO71N4qelFxnYLsB76WCZVHQJjw+4MvaXY45YaGPtoiJF0V+7cfaq/wH6pmNOPyMxLPeS8269VhP9fGDEjXNigQGYK5jAcneaH0+NKVdwtiOHUQbA2Duj+2HwqsrHpAdHmKscJRlXSlGKGwP9rgfIEMIELJqnuFCj9SRJ9+g4nRi6veSd01cXT0MwDm0Hy8iuZabU66Z2LW5sVVGRxdQGvuIEtEe/99ZJZRzPW51i7KjlHCD4X24lhggbfbr//WKO3zBIjbqfuOLPX1cVES3NbUajCNnlkBoZyDSeSXwC1CroudphTpiAdLtwnr+/Fu3pPzFCqKBDdul5w/Y/Ik2EbLnVIKYg3FS7mAPVi7qr0rEDER1JV8SfP/jfiyrZXtjfmzavxjOvYEn3+3UF7xwLV1WKOGDFJF4mJ2heOp2e7xkajTtf8+jTFD/EBW5C0bnbKms5Yw+JXJSnd2uCeZBOGA9gxiZZHDTpHm8fn//OVQZ2h59+3rkNraBdFZHMtLajRjNCKmX/TsVGkOoKId1J1IpE1MjnAs+Yi/0XWQ2Pt4o7izHekfBQGk79yf31yuJ4zV4caMlP38zButnsTkg1RIVgGHfAYOkNhKyMduJm1UOadsgqHSy0243VC9usJjI7PPURWkVUaQwyq5Fvr9mV17+ukkYmBwKsJM1anUZ8Spl+oVxMXqYyg00Yi5A3dsdzsMBD4rR/txQeBA3S9DwIUhD3FcXagzQ99G71WV+sVFBR+fmDs7bLK9LOFLhqz6ItY6Qv8IS/3cca+zWU85vqXf9rQtU0I+rQ6ix49zs2ZYwwEhrCDoRSRfRGMEt9f93k8Ucl90/l3JzyPL43CeoatfHZoLi/QgzBBnI4mmapGJ+JrAMvzVLX0QSpqhfVUWAvohGLisSvs1Q5Lti/NocYQiOmdjKnpTJYaOaO3iu13BMCs30dgmwhrDRqt5E8ctGSbd5MVcvzIQSr0V7petcXVyhN640M3tgsMIUPMl653KNpCJx9uRi6kn9WNSmd5EL29J5g1s44ohKdnYfhSnPBOlrZyxb/Za8DyivE6nRJgO2xnY4TgHS7+nOp8KPJnKXAXkasc1nCNv1Ndr0BDpWU2TanZNBYPlOUVrEZPWlw8277ntDWm8wGc4tEvXi9qcshEPROU5nHTcgXcYp9lvVAJHgCtEW9ubXlZA60XkJbtPt8KeNOhkKHro5fnEiM+V+2RniSud5gfZJjgsB1ctbSiJpxPPiIFtejjrcfw7ZGdlycLBJYAm0yyoumF0uqj8OawYufGt2rN1/hDaMia4hLtf51p2X1Jb4DEEIMipwLFV8WLjM2qBBtMVw59kPbSOaTDdiH4UHhVfzmLvJXhb1bSYEVDVdaHObDytvdK+EjPjXZDEjDLqE2Ddr83IgmfYfIFlRu9vh62LQ3yDAaXGfOMstjjWH1kScdFuw03o4DvQvkUvFmxqawa5F3RKtcoUT9xxOG2e2FqGQpJh6kb/eb7xWVtkLFYrNjW5X+cr/Fj/sv9zqGtwG5FOzTaFwZZ2C7Vee+Dy73Cp8rD/qdweY/1oR5HYbRsE9SRkJdteC62zCwTxoqalSovXn1QrHmhznnr0CqvqxBICdiIa9NQlLEVgzzHtWTf9uaHefoa0MEpM3SCJVUHAcAyNIpiMCqHFJBgMp2fjiqCkluzD0rjPd1LrsOxWmxNLWUuIbe9n+zHZRPU3O+Zv+oMQwFy4YRn5S9y/+YGanfRf0pwBG0GjTqyaJyyVxC0aIOpfPewb7hR5bXdEi56tjJZU3+9W+hYsHK2GDofcoA5WQCl91HJv/0/SPkryUHXez1P5ZwVsKNRG5akWT29jvwOC+bb9NeQvlT5NY4RZuRhlFW0OFemRTnFXEN/PmgmMP6HHbizv1TAqyDUOofdw19BMdbtHtiMK1f+M0lmjc6HSrqFDFZOw7iG+6AVXm2mQPPUhNVVaoerRzt0+H6SOiyhM96oWUfQ7QxfXK8KMIcC4ZlUvQUs0t/Q3Pf2nt/Nxj1qzQG4Z59s8wPItlnZRDoLDSxMlamo1Al/4eL/EoefalsKfnkqoxUglupauW2Tpu+RNMEDV++30wiTaMTuwGDCtVTNvq03oy1PS4n8iDcJS7llKaUnVUe+ylh/USf6Barp/zN4qe7GnsbrEcu5n5wUI32oDDbfhkWVMBG66+P0hhsW3uzX/k3vaJ3VUMwaA3HdjzmWuw2KRljTbVTQidl6neksFRsGcZcLuEH1mJjzdiHCM+6zR7nHkn6k5/h++N6pVoggfwrs7gnIfjKB90O5lE+h1xpD0HS8HdCoURN4WN61pFvlJCfa12mKyo5swiQWo10OTd2tyhkum0JEtf/BYyBT53XfSdT54ghhZptdYSchAmlZJpnhnzUuXKMRfpastv9+iaM97xZ95XSqJXE7RhaXd3m4OfIidaKHyUO+x2+N6AN5Ucg9fkMsK9KF3YsxrotGNzETjwHFCeAWe6gKSP/w65OGMA10kpVgioKMExRc9Hiql1PfnOQKmBQSP5BTnoLc7irxi0+JBjoNqD+djhFfDBwQ5WOCgCb5ceFXLwiJTAOhQ5nSvJu3smw78AHUj1BKJ+z7jpd9GQAfyyz/AV2AtY4Z+SIwoqfwiGnGTv50WxjoV9dgCm0eeMRoAPfkpCPzXbfWCMWAmXHLelVYKDuLep7P7hOxbtXdgFGnEef8+Rprnvf6WL306AJcmh03iT6xuUjEENtbzam31ZK5EmY5f08sdNhFB77Wkrh+wUBwPUqrhSczmM/YSWjBKBNtTwyn0ki27Z+WRMWThttO3nmMMpFTOdMVlRr9Q+Lh4fBBHvRb6so00WG4o0rwBTV9a1pM9NM1ki9PrvluygX2h3WHSGVwqKw6n1aywpRekwBfhk7fXqANQATr2jGUnDBPjKpgq/hYcSt06UEl84t1J/81aekeVTD2VJkdyRbK1Z0CkvNL3exLB/9GgDe+/6l/xyED4darbu0JZbnz2BfxPA2FDRKvKOLRUX2epk+/wL+Nb76I7ymbZlKEbxjER1zyqxiymBjPWgt+DazBBI8vP30eIOj4twIr59Wg5CEhCBm93DQnTtM6vBvir/Ywf6ZDz25TfxM7gMoEEOZJK+NtgivSL2XEpwizV4NL7SpKHQP+mwrbOfk4eBa8j2HHDZR0VSOwzMjl3H2eC+OFafJ6z7HqO5uRDrbZHfnHm5TNK8MuKQC8fCnQOeUd3sZRC/7dfxxjO/gdhyLE+YaxSF23a5sBbQfXQPGryp+9hD99O3u/bKmrJwmb8xYSgz68VDwKhXUxrqA6YNGjC/bhdfuQAMFTUptfJ5erAmqrKUHPDJ2wbXylw9a6gI6xIz4WlpKBr9b2okVNHYWx06Z165r0VEXIc7CVbZGP3/bjS4t3BXjFpfbOTwtwWNkP8sqmsiNqtre0Rp9BBPHKU/baVwmXBew4nedBDmkEk2gSZD66krATgUdZ11NYwsO4c+pjm7Dcq+Zp34Iv92b8nNWYzS2iquPV3w0u9CfS0PdvbpWC9kKUHGOEkBPnULHYSIDPAFyH2Td3y0Xt7bA2s+ICDl5ltSo08o4sMre+JMSkQpqsxs4sULYiuUTJIMoe5gnIJcbeN+a6GfeSnwaKX04/ZT1ywiASGq9ROBWkJvtW26tvx/1NfOYi9CgHHgCN4aENzmYpXvslaMUqqtxp/M5/kpvGO0rfi9ySsIUVGUNVq1SnPs8Kr0SsUm1Ol4XEmKZpqugNHPvdP1y3DHv9kfA+raOvBIIZgM0bxHGoLzsQp+V2Bpim0mejdjtMO29SeZn7SvRZyDnfhv6dYQpk8qd0SMZp28ClIsfhzNgA+q9pGNRoHIcA8JVRnwYWHtDR1ODl8RxCDEM4Mylte+hZnRYZDCoopHyfouxjl0SUIaqOAsVig2YyTlzsSKfIwny1206CAPJD+aS6dINvNCXQXt0Apt6Ysyu3NeqDRcvh8XJD7tsXQFAQi7Mz5fXqrgar5Fs7T3k+L+tjgcDF3/3wcBugFPaJzg0yXFMmXSemOoYPNAHnWAMkWsxo+oaW6TMMIBF6RUSVqOs4pEpzoplftINOwfZhY1LAZAXvRIQz+0mQelc3OdyAtLSxJNB22kM482sFQR4mwEMSckqYVwY4n7HDcenlZ4VuDykQOSHsHLYE8whxY2aT4rebjUSe8C88jwa5n0GRki9J02AaaV/47BpUWQsshp5wpJIxq3CZT8/MsOUxHT/Jt086iRTCVEhPUw8bFdI3RS9hAWRRqaIna61hD6KeVQ1T2F9NmiifdB7/r9vtfFbuYlWwI70rAJT9qEcMGhKhe7ZXG5QTnCaENA/eMMh0z4lysAZk+JGlUg6vyXKTf8sxCuYe0/1uY1PvCEBtDaZdOlvSmLeomBHHKDmH4Rc+sP6sKjSYHeXcG0eA7Oj2WgVFFjf1zG8YJzzjiXhmtGalYAJYgNtYUNmERQrBiOgHXKAb0E9EOfPf79nkavcbEjDIUQprBw9aa4qGrxyzeOQ0RqisN0Y9uD7Nid1OqTiyBqGlMVYGAeEoix/z6NJVpJvSF239BKOOvM/TrTjqgf1GxTR7+PPUYpdst1UtiqwdtldvvaInp8weJ5YCZjjnDnXff/EWHoy78Hz1qGguwFF9IWis3ThG7kcUyXGquUWNUze48/vm8qJ9Y7LSMA+2vfGj7+psvHE7wZq50qF/Irb6HZkENdv5JkR6yJuHTnlhtm6qM7zpUN2NmcnxwzfADwCTPNq10GTNckyOxcxKPiLOWBmIlQL6Y1DNjAujR5xVu4q1TqXcdS/gW5ptbt7+Xxkz/kyor1KzF2jkS2G1JiBSisznz2PnCUVlOmPXnSXG7owxhGBzSTJjQVO5pXkg2HHtOfyGnOmB8UeJgYTraVpRqmt1moXb12OYw8U7i/cEiU9E78sWYVC5+/20guaSYUpM2n/nVGV2H4LjOThvG6JrUZXP74OuDDnV5uRqKWnPldXBBjLTPHyB9XgAhyhIV7TQWqiM9FxnooGu2UPHkUkBLGn2uzf9dbwH+bqGJOOpC0+H4Jm2QIpPPQuIOtzBbhb635sZH+CXZIVlC7lrS/2IXV+pIY7r1t0TQuFob3TusHQT6y7BJXkrhIAmjoIni9g/s7tye3koDh8sIiiEWpWaPCBIdwcvxWnxGy9fOpbTluT9ded1LuOFueLcVwVD8GfaI8sSarz02Q2iPRMbAm6P9iWfQbjx0CVf/684SI/rmsw9j1aTL/iOwWUNEhwfwEuDEXfLWkTcyW+zIVP4uKS9+2XPrVwaNj8nfY/46uvUuEXXKTTUjQGJCR+3+z46ptDvLKFhGhC8m68hnrQ6i+iyuNzzCEtsf+TUznt+Bu3xx6Qezh+z3SXe7u2jiWjoKdfGSDaSG4rwtRUpZMUNUAl+TDbx/dGllFUkHoFXszO22CMQ+7Qceb5KoDtST0DFigXNIr7yBH6710uyiKmZqX/VZmfLvkiSi3GjASpu1HLwI1a4ZHvGCUIaVID6OqKpTR/51LZ4+SJEASPiuqdbzlCKFp82O2jj2PkPTrZRsnRISJ4/RYCJgVFe4rfLvp2ZPvRc20g8SZX3t8W+9aKXS7P3ERBSeWzaFxqVTp21MCRbhPr/fmockNLyjibWqUn7j0e6BUHRpEFAb23GG3ZPZXI1QUIDGjWXHpA3x2reM6j0KlpkVdDSfZPfweexR9zJlRGR7hGXbryMzw8IvEqWwre9uicSqQF8rcPWqe46WdbHP7asw/F8z4ay8xJLBM8MQfAA2OgHw7+qoCyuUL99BddU7jeOh06Mnklugpkojqf1+kMkldW/MXed5wfXHHCtiOkeK72M9JXHWhSJM0YouI+tUC6TRb9l+voIDjOgEDxxPa98HGNd9ZiiXg+swRuV7V1ILy4yHD2wCDcTdKiPxL7cfhNmx/0ZdEqT9hhmJechKx1yzEmCfE02M1FZkqs5zOtJRyayG1TTs2I49SSvJSDK2N7aYiAI370LyvR9vFLSfA0N5CVLdhErP6rNjQix3o8quL4SAx+hcQD7/91qJaCkfUEwefcHkzTD4civ+AoMFVT1qZbs7kAuBAtQI3gE3U0jU4KVoIGaLB6TDlQX3yCWi9KxrtzajW+NjJO7vSVw6cVfjVCqYWfUVjSnbOhyd/t5wyPUQeZrD185aqF4pCV+O/3L8jbGPzMkKVGK+AYNpRsLYz5JJQOt6sJ0BfDNVHvon+RdAeLXVAq+lN8yTCpuFmoFJeszByD/9aFC/i12Wj1ndVYJ5i37Q2+q7Y1DMqHKiohbF4ZD/YEVvZphT0lJ9lk19HzbY+KHZt86aOTKUz4iyhfxCmIWI9KmwT91In7SwQPQKUQ5pgultRCa/liQWmZ/IcyBBfDGsrjEwtqvD0xelBOiiVhbJpyHRDsNEel7s0ObUf1g/GsJ0M0e3bmkPfFFRpDABwlc/aFnw/yXvxps2U9RTo7gAJhbjK3KN9ulUXljx+l7yaZZuoXfSxYj0PVmAs0qeNeQ3gLUdpRjhC1t9eo1VW/BMO2qJhssn1hR+YHhz/4gxlh2KKxYkAtfMQJ3aQUpC32vbNU8znHT5L5u1aBm7gp1hxKdm0UvZtCFGd7rwg3ewddMv8pUrF+0GX2FzSL5x5b6zSD1pGhRJvWRCMiVCInBVonsaEq59ibK1DLbPduavU9NzKHBMVHbp0yUMeuidurMz1+bzudeyv0a2Rq3IjHDvlSBz9UnfSDa5yhtcGXXJktwqa4k6jJTvUeLD3ym/WX6qX+0ObO1ajkUSAHTZZhjLTVMh0VAPsAcQp+nW/2aPmMf5eFDcXoR5BU5V/O/cdRntRwBqCuYgDjTn2AWevCIUXD+mGwtYr10BCLRD1IwTNdARaesVwVtWjycQgcp45C/pvaBDbs088nv/0HijTTEdgcKrGWrJ1trU18Hq0hYEx+C4EPmHqCMSPRKPZaGTT+cP7HOSWV60nx1BMH2DbhPmavreiezdvZadM1l57Ny3sRurAl/ej5yLWb5Yd2TzSDMogxI8M/hLyR3yiPIyCHeP/7glXGjBa7P8nvaL1G8X5czm/JUyBv7gN2UsCMKXe5cJHbPldFWneNOXiAb/PeEG8lIjIXDH2mBlDK4WKp+QoMD8wvWS0Sff282D3pIgtjF5za2ApBXULSKvxx3M/b/CSS/Ek5m9lcvmq+Y8IFxji37zEkVlOpPvaATR/+MbbMyeQFRZr319i6yKE989WSwMaZ16s8a8bNmSn6lwHAENTKICw83O+pAGGTOtiSjmAcM6Mo5R/eftiQncxC/dGvBeOQWIAHYOkt6s1/IzOgUQR/t9K1t793SArW4tYBB5wryxJeoUQc//mnFhGWGth3J9J+OtwML7mg+ujokvyqoUaBVP+X7RglsrSq02Yt70ZcWNowlR8ppwZNZ2Y1mtOSDpEEKmBKaDcn1EP4BQg6vWVpYEovwakf0yVeQvwvY5OMKYIMvxA5ec+azX6N70KqcGKabObZHswJGxA8R9XOCDozH28+SEBKVoVRakDSOIqWM+V6QxY9dPJVbqH/pgE5Tg5UMSaxylRaGx8eKvlgs7v4NdAozNZ27I4YIuj2RWaZaTwXooUr/KNOFe0A8kMjRUM/frJYxg1dEwAVmpRF6X53cCaLDECrSNLay8bsJTFiux/DR4465nIqE1wKYzZPnqmLu3WytyJiAl3D0NviTYFL2oKR9Naha671VHGDskxroMZS71Yb4kea1VXL7C+3P7bYqlAE2fFQMN1mzxm7cRqEa7q4jE1Q2jiF5tbzuesVNL/OFcGXXJw2piBRrK+fKdu4Ifhc/PW3g8qxkbmz0kbEeMIlLFiKnnGwhG/vVGIBhQ+GT+0bWBiNhnxICOV3bvVME3wh4x4GD/hJuTZ6cgd4+3meylHiVZPmzq+wAAG8EIFv3Kyrzetl4Nq0nBh9P7fe3qIaDuaZ+IPjJAhh3lW6ymzMXzEfGZFc54J8lRdDWxGtFfuzzlyPTVi7H12hX+vSnKoL0vnnFrZ2a1iW2lAnrAaH5E7pAc+ZLKTl4Cy63nC9huxG+uk6ikBKQtzEOzvNVClc3s7sZTzYS2a4hk67fn7/RcpQwifqkpndhX9C4/MeyCMv5P0VaDfGc+nHfzps3g8/jbYZp0CCnAp/23B4t0XaxPMFAc4mg+KctX2U3l0vs7Cm+NVB6I9L0lIwxazHYR1sUNbGtmdSKpigQWLUP5OfCiWuH+9Z2LLUShZ5LK/J/VwGZi/bUzp5bwPEqyZvM/bIZhhfVO6shYn+5PO50Kyi1xBF+Pz3pg7vhGX0C0wNq4T1107clXOM+1YKdz1PL4JW7tFVW55WCFNr4raxl88sVecxPiaykVjVq2G3yoo6jOmVQLmcpJNlE059vnkDdmZpQMMIneva8sysdA7a7CfHgdneTqLKoFtopvbP0GfjgO3kjb3zbLQUxfLIrKpO/G7J913lQ/UgL7AkCKRuQaTNA7RoYSGedP3xIqf8Tvdaf2w9UFf4DmFEEr+KjbwID6EQXG9ZpfetIvbGvx2EJYvx1VWJ2M5RDCyC3Vf9folqVxr/3oWHo+rGV94LIGWqFFzSRtJAAIjkyMro9C6qeqV/PrTaJzkq8YdwahCK6WTbMZ88J9PWY6qZrxoUFtxgkNF+i865Hw9zPge2ORJq87YsDpL6X6JOGDmvjaBRyr+IphFOxqubJIHHrtFBVxvrsQdi1rzbNet99AN3lNde9vsf5KjelWIp2nCo0XVk0sdxGMAWlwkWpZpyzkchesH9Tk3T/p/08+bYRlJK/THMBOIQ0gnaj/l6HH8YtQc9uzzgk37myPdhyCCbAgMhm4Io3NX+2+FVT65Z2FRN5n+P8yWHN3uQ6Bdks2cADPkFrJs+auGYwAriYvEL4YRw2GN0WMNXkqG2vZaaRrL6XvAvEtki3GcwNwGB+cd1+yrIdNVxx62VYKCEJLNTruOS9MRiwaL1jQnHzvtvv/fewn2yHPz5hJGay6ayJnucH10du9WyMxKGks0vhyO7NikfHeAYQ83/d4h5vjHzZ30fzqNYRkcLStc/BZ6ctAhogRknUyYUtT9j85rMy5gBL/vmwyGRu4pR03M4edifIFnV2JhYjaLWauSAFdjMNYm+S2QhC1qta/ghgwqgIYBnMhDRk9lL4KoNACgVoc6NwnwizjZv99z4Z9G5Z8Pd4jtGgATDNKI1OpOCZ1EWJaXEudnaBmEm/8Z75UpTj+DQ7hW3HNbjMmMrDUK9mLxqGHQ0nLLS+8FNXcKhr9VDi5EWg/61/pvCpzf8jGlwwQ8jjvoSAARnmXVw6ySGoel81CqK/z+anfk1Luw/E3wPIfmVv1XOr6s9gdkSPlrHENlJ5n64JqCj36wdolgB5zuuGVLK7VCIq9+ieecbYyxnvfI4tQbElTGoQUfqL5JRBwj/ihqG7b+fU04l+s6M/o9uqt1b3ssZWHrXqnCWdXf/cMesiKiwC0L36TOO5/0YB8B/6crRs/FSMBeGTVhQ3vkl99DyX3q4CFXqC2C7aGfl+YgWEHor6Qb4jGSYaokTn+8dZ6e+fWUeW3HGcKVTjYBqU1QdFOArKjgHJCcbBnDMSoCsvwnVqbDZYSuTldCCAikFB4bw2S7pgEad75i7X2/MBlyhlZ1m4jfdYlw/y9TJfV9mg0TrdJz7Blb3oANsfSJYz5FbbSpEpuDM9A01RZyarzQQ7m0TkV+sD132c9xXNaGTwaqGyhcVXCrKlzduUlZ8r4tClvjR0bLh88gPud0zgVc+a7gSjPXURfAx+RYh2bhEo/GLm39N/IK2mw0TPHjxQMN85w2hyPFavuzHHljELK9m+P4V6gKb+QpycslLaaDbd6peIbSLX5G5DW37yiGDl2pjZyRD6zUjQYm4lxsT/W/SWl8jofbIfF8J6GcJDxm+dQYJcb2PmQKbugJvht+/eHV/ezNci06/KhhOzQDsWqVcbe7vTiJfFBlW+PGpGtJBzf6EPc/W6elfD99QOKhY0OClaPEnClWuSoyvG4ZWXNdpZxqVsxMzI/8qwunMG7wTqo49EjgWLeLrDA9rIBLhX10qEjI/AHBhafN1Q/c39MDvV+8mZucSnnLxLORuc8oW3kS9azQw7ayx1OgOsrIarGwOTBnpVQrLiwcSVi1lY/TIbRuu3NB8SY96j1MGq8KX7YwEZpnNKqvzPVCGwyUmcq5pxf/w2VvBddt3n7DuvsT9pfutzFFdVktInogHjyDz2hIAiPcXrzpZYerooyK5skgHFu+0alMBZQg5Q4wetAkZ+o3qEsdKc/2A6O3NJZnagLTbJ+9VSj6PH9begdrPIQ5uEpOf6XGEAwTf0prHdoY5cSl0sv93T9OUpFbCKpOrCjnMg3gRl2ZmxhtkoO79vKhGz2b8yiznxCr0dbsYQqqZuuqkymRebwCoeMWh3eiwVzKZUEvASPx9VPTnZtXW/XNsVg+H/wXjiFFC1IUWs88sLvgzU5r2Dbx6SrpI6YkGr5dlxTlGwWEOfZkAOF31IsCRmqHrOnOzw4yQxNI1ivOz5zWRLEdlY+xECS5doRMqK2iafpsPdoBmkEsuHaG9/mTVoXXQ2uFKpg7jPz/frNmmScIUjPytlupPUp9IoOkM1s2rQxfAoX1Juee7c6mjPbxfbfzKoUyy7K7lyGhlVXSXq3hb9fZ5JmLfF2+iOPE87eDx2lXHi/YDd+P/hEANN6IpkdXSQm3rFixwUkjIhXkL1oBzgHdD9C3qjRe6AhiVASLn6/3kmcX7ER73lZtXGkeA5XQX/gPlIt4VVxclRxd+rdWuKKsJ/n3QmsyZ3VGzwQPH5086vQeUYVPrAGe12lobVPWEaD/ByCUCtRtGBChum53Pq0+NGEcWo70wrqdlxkcfCgsenUG438fYGcYmSpk2vO0bGB+Z+r1OQ0rVJGrr0ywVwcfjuKcN0qzk156I2eVh0FtnJFxZeTpb7X9uthmOslEU5gGTSQkfoashl9WhwnK4eJfCMROWhmrOWUepCcZ/IYgVf5OsmMjvaBQSP7Y+3ZobvT4zUiIL1ZACRRJVVZzlMAohpuLsxWAEXU0POF4HT27tZlUuyFo6dJRtPYPDa82VZav0qW/aDK6BX9GTLAn7ZUzjWRmcqIvOCokN77MoNz1jyc5QfdTkZ2EeCNeqP0SWQtTeu9N1EOMggUhFEsTjbgwPO4bNdXVenaJZpOP+tY83d/t5bKAqAAMcOTx2EQXQ/Pt1G1/sSLqxmGhb6CukCy5w7LPBd9VluLGnG6zNhcVm4lEcUav2mJQRsq87j4DX00wsBrdcWne0jQI7BSjfsNYVvSpkjyulYtQlSbqT+FBTJZIfRI20xXqAMT/pppi4qbCHPGiGYb0HcXibMYLPeHEZC537IRwl0xj9aow677LfeYi9f0hEE2m1K/NS1d4XVf9p9w1bLxWALG6NZ5pHOD9VxIOskXZAPswZRXoKu2UW+N6o5Djxx1wUN+GvEEcoMpPjBvQP8aJ2AxCVTGm9d0ynvE176DOuom5qWNALymzaqKJ42GyYnUkcNLVbvdmFP/h6MejATHOew/l9DbM5sUe4eL5KtBfnFRPHLYgbeIgkwD38YFT3LOiE0Z6Vgvs0vAS2+ejOyo1IUo7Jc+pYqtr7+IdwZL/UXpeN5tixxly5NvhFpzrvAPYMZIYlHDXK3gPh294VrzPGuWFXeFSflxKOPp126zbUdgxf7Ex+4yXYSK2eceyUhDklHafR+Fmbz+5AAS7mLsec2U+UDIxOdITyiLjCyNgAR8FXR/jI12AP3TcDwH/tuF2711BCZC8PbDtFlI6R59v4BC2B6wpsGtB5f8Ng3zmnxuNd96d3ra5ifJ3UI4XwZYbwLe8w+TmI6GWkIYK7GpFXUW4gKe8/Ad29SpFjxQdHF7FkTGYWYTmMgAoP/YTeQ3/c5YKosplxMqBIL86lu4dmrWp8uCRghtKpnVmcKk8kh5xbn0yi2RVJhwOM0Hv7Vek2YfyztRWfZQEBKPoP6+m5LifB/pY8O6eU4I4Ss6RT0IkryQrw+Kvac7HdfPSSEecMZMjfPwAuvFQLLsjMH3HdYHFTiDNJxD4EaxkQ36F9Fz1CBXRvUwwcVr9+beB0P64aQ4SNYCxNsuVm+0GgHIX0f61S+ZIcprOA+35CB2Wg4jBRjJ6DaTM2za1mUSqVoGdhGRsYoZGFIzD7IKkvIQFqKcT/0dmdA25cuh1B8cImR4dRZi0ULn6VBsnsRDUrisXCuJHyZ5wZnLSTjPsa9bXqsolelQIUBTvBWdlxYuT/EhWi5EOcKuo0DWlxDy21aw5tt/0UiX6mRyikks8L7YgjQGi6nGkk8gaRokAIK7G6lBMoowNKpdmAvyvJWlYLraoCRko56lAqnrcBVHLrYv8s4f97yalu5mt1I7hyp0XExt2CvNKMMc/++x1y8pNkq42WSv0r3nNdRdHd/fozrhR7U0nnx27krAVrcL/hELBzJe4mIxCoXyScgHcJosdDkcQ6SNk7sfQE4balIoxh1cmzp3X4QtP8V8qatiGFNLw0WOTDx0PBz36aPO/GFNIAIM1BFkzSWgX285ikgji1hsljywc5CoGwAYZBP92YEvW2/dm7vZr4a6Csbgcm47se9Ke8CLTC1TVbGiTvoaRpEa5y8RwQQf6FEeZUm34T4KqpcFA+PoO0biJiZgcfd+IUm+wtKZuoyFAp4iUEwcFbXmhYcmNpFxuRyR/Bv1Shpa7ZtU0Tcs0LOHGrt5HWzywCFsao8Sv2sqBJztif0eHIYGc3zgqp/o7fl+1q11xwMco1e5Xbs84NxgwJ5Er1IYTX/+HO9rqaLS+82wWuWwdnwa7L/nZ0YfLudzU/HNgYrtuzJipXfvNzqQ2bXYilfS8h9/wlCwTyq6583HQpV8gqQq0yx9c2ZpoW4qQdj3Hu7T3+aNnfkxxUvaLQVvHITZx/387jN+EehqVrVcUSrjqVUCt3AFqgpbjuV1HlXlem5CEcDODi0nCF6Zi/pVrn8BooyULxw1gtnTcyim/ewdeJHvQPqejwaxdiIVNhQG1Ewm/aV2ZbplkhjM0W6Q891RI79xMoHU/CWk93SvLWp4fvYdG9PjFq+ZmXiEqWx1kb2WUWKRXkWHSEgkQ7JRXSBXT8w6NjqzGOrARm4ZddNiZhy4ukPxIb2wAUiyRnR0QovxIY227hAFLWx4X2ALWYY8JrZNjFin0TOWe1lOl3wk+su+ci0xAD/KmsZTP46scjgWAkwQATPSAkWR8pH1t24yLian2uoBzYqyvTPYd8IDkJdi67oopgndtPfiFccQZCW/K8xq+rMJAzV7zJbEYRIOOqyNyCeEJhnQ6UiEGkxWkm2YOYQVzYgy3fes7ByXgvaDbPp6ArX8RPBJRwcmpyo0iWonKsAO5Z5AvXNL77aopyhE9jb/IujuLCBwRV+pJWEnj/EgXkk9HUoONxVD/WDoURhm/dEoGQ5sF8x6VilrKanpGa4lw4/M+yahE2Y9LJNr91wJeL9h9rEaGH8yqi/CRT8HhnOZwAhcn3H81UFxrUxUM6rwMtoFhJYEQUOWcHjUXi+nLlANA61yz+n4UubUb+1inidYe6C80TKwgobkpBBibq2/GyK9CQUUAc13yQxI2PwEfyiM2v+N9EPx+AmV2WT8IlS6JVmmtIZmBz9NgDsbM9THaV7tUxlCbqcCv4XDnt2vwxR4xvaEbcgLntLJrDr12xD7OtaKZuUGuku7iUrBg9DlWpeRiRpCNryFhb8dEMfwUUmndDm8Bwbktt1knmO9a7vkuxZ8MuqcJtiKBQd6Q3TUIP3sgGhmbsFoNFStcHk4b0UTh7IbUC7Tr3oSjvXwLsoJO8LJcm/lVvfHXZ+QodRPGY1ZFImoBTvq8IsQE8tc4xdx8EhiqUp/kr9xRazwn9rkMiBYwbH9uKA4jXvWxtlFcOsdGnOJlrWBHafLxi9VgBve2/wC2aMjjPdE0EorGhOgvUgZOj/lVKNZi2Ag0NzUXk3zMmQcK0YKrFn3OOUEBQoxR2OTZz8P9bSjccKGOOxXc5RHWMBodpZe2hRLt/JGnOTDaj5hBX+XmSV0MHTljVX0js2TJFqtpPKJyhTbqhtGuaTgzHQxnmj05wZeF3q2Km/u2rMC/gB/satpxUwmo7O7vXaAYlT6KGLWVJff6+V02cjrcSyqD8eK5ckfDZv8x+mOvAOQqO6RCl4t/NHuTT28fPCQO4/2UArAZ6MBRc3r6tg9UZ9xlUrcoB9qnoaBx5vhPnZBLSk68uVE3j5Xzpmkv0522Xyxb6Y8/iAeGoP8TXBLmJYLNFwrn/jKcc/DSAAVfin+9x4mEtRxewUm2qfYuIGSLVMsBYuVoipa6yXT/MjyM0tMupCLkojK94ZZP9UhmzIQdeO6mZ6794DCT0s7M+3ggpgf7RToUeLB0lTx9GySKHgotTZxqd/WEmGYD6oQt7uK0nDw7tZDUJVPWB+EOOGq5l5sSvzowep2DWnD7L3JgiJ3M3sobEZtmRvUxrz2ZE4h26v+SO0IzcYpDef8fSVobhxh99trafwMOxzngDQ4hqJIzPsSIT7b9MwXvsT2vkgzRyJ8PPASc9OpBK6Le/2mu8HZost/rbIu0bKFjBMHkwhprux7N3gcA1IJWXoxVtGo0XlKbmSjFMVz+CjByy99GRvE09Q3BNCKOdr7GpdYqrrdq3jiJ11PC2zKbF/p8uh8L6I5pHIGT7S3XIiqrrNtnO49wRKzocMdznn4V2nAJPyOT6kkvSSm6Rhz3JlvA+7jhh2ZotSu2t22P57twj2DXrd52LXubIBrU3tuUbmi72bwuhaGdp1WB2HmTkJrJ6rafX2w4p4gVjQRWgrnk+OJ4Y+BChf6/kJXSJGCOFyRcNEgkao3yZNzgB6oQcIzZl5lER6GFZ5ESCYXUje0brKCnEKyG57rOluiyl4USkRjOHiuc3MCP5otbC9NZXwNikTxs53LmFqcezcUVjrsUnEqYkz38KS/vT7VmNiUxe+bSIqifzjJJ0Iw+aIMgwPTNd1VOEG1OTJ36Pb5yXMljrn/zpT7+iSqiTTi1tZlVUJEfs6afC8lL5FcgbXkfflFYJwHS6tozGyXJkugToYL3nCeTI5snnDZUnbn/sWb9V+mKw+KxGLM5wocSblKelmN636dfEALBfy9B/93r0LlTcxrGyRwUMmGSNOYNf253QUiZzpupjpC4dCq/bttWDH/AfKq1x0Z2dtae0ffem+VdZrsOp6LZTw6bOD+02EHRv0ab1XEyJCc6odLMg5FBo7e3DaTOMOYUWl0KZbtmer+vNKZ1zxOWbWr++0DLkPSdxd5/M3rm/lAzIej54MHQrvpqWBWX99ZXB5TMMVQ1ksFt2uQeXsUWG/9DQlxBc7ZPf6vyTVj88IU2Hmwb0qLqnpLXTEcdWRihT8HU0F3Q4sN5GIipbtu6ZS56OujnByoaRvhEomt5aaN4Z9FHaiRzYsFo9V44ueA/Ob3cru+sW3p/EV8g2WksWCPW6pN7vrh88Yyo60nxWiMwC0S8pVw7aYYfkB/ZRyIjpp8MiPZy+lsJHW4tjt1qk382xVcJw/oa6TtFm0VqWXBh36rb3YsTDPQABL5C1ez/GAu8GudC1egJvO/Y2k6CiW0/9GSvJ13lQxpbPjK8MHhiJ3MVPcWQpQdDJnC0yd2NNqE9yStp/7cIxH+HzxN+alleuQlGnhltuuGUf7FmXhDhpWYcIK8gvOEF47ig15e6z4eTZEaHByUE9inpIm1pNxSlsWPmAbjOR/EJILSznXtgKuoO+KPWs/33ysd6lxZsSMEhWyWqifUglcGwrDvQ8ZSf8kLXPgxYF19gykOLI3fmb9sMMb2xWzRzvRYlquz2i5AA/+kMFI4wggABG+D3l/SDhZPimCvICThqpTo8hAGCfEeURPzrY8VJCRsuQhEcc7qarC2Onb+nb3Etu4T0fzIKmxr2fVr0IWheNcd7yksgAgl9KvKt1amqihtvJkL+qO4/QxBP0aDUUig9IC/z+R/pCfQlheQLEfYRu4lSgfCet10CfbqmrCVwzvNo/wSsorvTqbzo5osJOkhukTtPdAgAULol9MB7BPQcYvVlezzurTI0pKmd8Vv+YLN5hctVmDyd27Vd3eYmOg/LZzoa34JwI13dhER6KqLMcn2hn1814BGLlJzEI01abuBlvaXZuxCC5350ycSn+P1HYErL5EarpO4oYEL1ZPnLyfQA0n5ADgXuDHzdKxMu8WALpwcxdYrjU+RoETuz99nTxZz2HoLo9f9EJkSduCOwSq4LUDXkrCBR1oCj0naP+r8CXv5ysZCPQZNWJe4+s3bCC1MVaLnJMmNdbBBsfQJiYVmsRqbc10/dpyvDm/hdFsb7qf7F1bprSkZEh/ZYG5uQEOkAThuSBcDPfWZ0yVwhfD/xhJyfSFRm6oFNoT+OAvfmByH1L0xhTkv5nt3hv/r/rIdCZG6vE/4keNz3Bw4FSyO439R88GB3zEdHptAECr1VgpAGTSZQmaX5E1q/voG4zZvE6sRfHAzTxciXmo57hLU0cD2CxbLa/mFPqh2pv19AyLZ4KkBLrsjrr9NocrNE23IKA77dcyUkNaTMitGfovMq0tQUWBci0r7pO4LjZ3n6YiRpPY1eEsGRJyhUbYh+F17aFhXpCmusfTZqLNTvhmkQWmuv+20aWqw3RAp7yvd+9NlsfByZldFh/8vrrMnonX1+xuCuNbbCYhmlFtjTw2Fs1MUGlUn5+Q+xjd0C3Q9pUjPWxxQa9BPtG70170w6Cq/T1oWI6xUeNphQI4Tt/aq7nLz/hpNd+iJ2PxMO+mTjqcYxL2mMwqizoEIIHYQ+HaDwr31qMxcK+FW3LrpmFfhjG40gQxMbt4lME/NXF5KjUvt3ya6znnaxkGycIqB3v43kJmIjB9Ccv7qn7enOdtfrdKYkqRSlUbQK4/gPiC5+9QL9SQRIjGZuPs6nEOgFPp5jUtV9BmOp2bm7XqMGvAokGlyEdvbq2vNDvk0T8jBcKxOseZLhzcNxjAWJt/V4mVxjhVoA/jt99MiOi7uXE+AG76q7uw2lWWoKnpByK+pL1hSLdFDGeLRGwpGlHCvZZYpJwNaqWr1DmnDpnzVFql6cUiX3mQOVkmVxyeBhKhSP4OPNWwnNrDlcDg0ElinFhDPKjzqP5IV1Tg32xnjrsJ1XDkxI5cEEMPqrGbl6e6zfTdPxsNIrUe1EjbC0Y5JOhdYYcLVFrpcPYSxOxkrfBLagjqLGAuTB9LwOOwSZe3Fok2idALX9h614yvoSDeMFNND8lhjEJXOpfWFKP6qzronC7OaAyEgzHF7IaHqZ2Vx7GK1881uC2p36G6G7MBWPsVnbBL7O5ylq/LIgwrmqvwxePCAS1K2oWIFJxX/6dHQc4XD1wNbUYqUtJ/LodsRIsueeDchtGwj3gUWp7XSbsq577fWH1ddbtiQ/DY/hS5ztiauTNADbzhM02TOsCUoiW83MOhph+3xvWW4glb0ZGds0Enu/3dGx+jdK1D1Di6/rsdPksKEnu6tB4OT0YGGNGbA7lkKpNVs7YJN+NUS+4kodHfPP1bSv32t5OjDjfLgwXaZ8tm8zDwRTB2vv6e3qbU0YACGcZO9hGIEhtj+EOTcLFLw6PzpaPDEaZ/Zg5lcLkV2hoCl9L5+Zw1FjNgMtMCh9QyIEWbW7imxWEbdcHBJmGmVz6q78XKqNA57mYla/zjupW1o0qcxXosH1QSGH1V0AvasSYSE3P9ZliSpd0Q2maRskxzD6hmIy8eUkTa5feT5aI06hfJySjgHGmJ8j/QnRtHyFJyW9Dqbol6l4DDcQeILjuwdGsrk24NT04tfUixmZq+Y+knN3BmQRnygEeEZxtpKA/dieU+8O8RnUTgMeSWCbmAYW/1sVq5+HsTYDKGFBQiQ2Z6HZUlP8N/luyPpLCF9P128Fk8GW7rC2v8CWpa6SYk9vKkYuULTDiGpY8gnnlJVgtZrbjDA2L5UvWXwqBk7QVH11F/W5OcRyBp8I2BOJy7tZLuur9CzupZyRNFG8/RPHb7RT0uumlhr0NXGAZrLNzNSQesS6n08tQAEo+vheiU9TRJ5HWPsg3rPcZ72xBN5rGveOApOsCf/Q7dJyTClKN2FA3DeZJ9xA9vjEVO11NWdQgHMJpJMfvA0OVqvGAkx/WJp9R1cBHZyuH+jOKE/CX827tNAREKhxZ+psM7Va4dGSqOm+gfd5a38/XUIRNoBL5bpLfnDHKcf+biUNn+8PbbYIpY1OPFQ1raxA9kL3amT7ZWglPlYS66HlNRU76UymBZSzmE97+alm+mFzZdKQn+i0Mky41dtKAmkWRjtEdguJKfoUZuDdgxXe4ssXX93q57BlDE821dMteGmiw6y3t1l/DFuABWxdMeqoM8L3kKkAbMSHtDy0HpqAocZCc4CTc26a1VewAYf48ITWVSDDnbKjPd2QBqw4fzoaUm7vCipMZYs/yxIhwmyBOB0gFJTnvrZk5/P1lsAE1us2HqfaB0lqZKMC/KZeByuTuI76L1wcpXD/+blJ7C8UjcrNIHt5aKHaHNUE6RwhaaoohgTd1juc/JDHUts1vRNbvGe7cN+PxykeemM/LaRg/9CudtyWRkHvJGGU4Gn9JzHqwB5CjutTF2OMQUpR5BdFmNm4Ts06oCerLGulYlxn7vilaGVrWxWqMKwIgYrnn7uAufAT7rvAlDQX1L9/pxxGxExfZPHyNZ4EW/RuvNN6+SDYEZY0GVdOL+LnNhhvhPmoUBqJztc2hnGr2E1IB4rcCK22kFyq2xAP/q+8bS7t1wdd6HS+DSsGvZcbwlcXSwOnLWEkuu+uCrfW8+YAhlcTLKh6ne/STCX2C49Fo46naSKT0V47fkUpI/MM1DuY1IfMH96Mu61TZ3CGnSrJi2/he7PTGIqpf9SmfkZwPG6QvDuyn34btMQKRvfJ9TZMNgNWBvf4KAg5AixyW+cqjAIYNIP5rUKjF5ceZIYJNv5rgOAclc8OY6q3xML9zruqhtUnPl9zudenG4hlFj+oaNiD2m3i4kiJY+ry87+lN/9Hh7CFXA0iDSBNm/Aeqkz7cfdSnW74OdJZ9wt5N8pjv+IbVBqlalwBjIscvXtBTjKbn4ieFBBp1cY8olLtdTfIs4kRCDsAFzc/kYaY0C3DCPpKbT2rqGQ0hfBviXEdNU/tLznW61yw2BzNtH+L/nGJa2ZSnKF076zCO9mm8+kpERwSA1pK1kaGMUk12cGLWSEzIZ+cu3rhj13Yr7Ah+Eee3ZobNYWbb6QQg7TP6anCG2q3UfbRD40CFCnKuLQB3Ca8jwTTfoztCWCDc17popmTI1VvIPws7ekt1IXdO/hnbcwkKnqdfFZNu3Iift6gKbOdY4/khCHEccu7I0xLQeaGs4fSU3P3zGhPFgiKl8Lxu2oA39LkwB5ulDYJnG0C0gpjt+Wces0j1YJtERTWpnAC03FuDc7NiRHttRx5I3V9mDCdYTYdJKtUA/G0mVVTusfTo06fgFKg98Q6w0yPcGC9NPLOnhcBNpD7dmRsh0KdspKAWmbBYsjpEi6+RMZTSO1Bbmah160vGLJbyvJ8ex2m8F8CfBNurRoTXw2MTftaYHIv5FPOesaBRHcQVwQ9vsrZ4RZIXrq9GWhuNY1dGuWO31dceM7mDb4orDEM7YcdrtOBS3wy6oH+T3q4iVwTiwnuwosvniGYr5DYDylx1a3rbSZzs6qPY8Nb/CuQAe8H1xS0BP2vNEyt4vkyDgNTPeufYWLSF67LmdY6dO7Ukyc12aa3q6AfubFaUVo4a4BodMcvSZxFZmdQvhnN5yfAODbV8yTmVGMgs/aFMrGQ0U5oFfd84quAuXOZxk0vUtLgsZh4ROqR3EVqRJPD6N/FOYlySATKyU33G6L/leekCNStVJsgP1MshqahywA1eYhutgX+RnIkFSmmLj4A6vHTG2dZiL/VQrG1ZIca3I1p9FF17rd9Dy9MMLWwWzseDd5bQz0PBtaUsuQZDjCgxcBN58QTKF4Ndlao4qH5+ALkyxEd0LG5FnC7OwS2NkVpcI/WZKhVEIls+beAv4xQp2HLYeBT+mWbUirBMowPWiZb/uWABxkAttOqWPtH95NKZa7oXZ8lyff2CXAzq7VpAOrzwDYScvyRwJSvTnDXCLO4FOLPDk4wFmJgAkNbah4BDRvHwW5q0RMRj+7Jdfgl9pW80Y/G3XR2SBLsjBV1hBI8EJAdt0TcoouABCi7G4/TPJnwbf+gNv/l36/3KuZsz0uFJaEPtAhmU5w7o+qEWeRuwoCPDS9GaYRGiHDjaSTN3vjGbzT8RkPhFTHeiaGfQJNvf3187v15zctZTuE2NER5nVCoPMEyFE6VRWTj2dwpn+oR8i3nK3Ad4QidpNLtM99yaVw/2MtnCIEwIgQtvV02gYIqCmXsfcE64v71eKymP+iEmuTDX4a9O7V+r87HelCIopykYt+79zTAIK+F3RkCmWQR0VtOlw6Q0hxaKePSk6PvAwr9hKHn2oBBM0ohrBvs+6BTjkaTJg3kozBm83YfFAiORTszkvsqaiJo4GNStC1lqYCHO3Ivl583zemM8AHJgf7GpZ5NjHBM6GbLpgldJmcY/mAZMjMwZD/XGoCC8q9i0KNIaofEK9M7keyoPn5aDucEI/uTz5cgh/SWIRz0hyYasiPnr0DTWKFwww2aocNRTBwYRqdCBVHzrnBI3BtC45gimHA31olYh8HKaCvQJ1bftUzjPjhujmRJBH9Rf3aS/Wtd+spRhndSh687GII9YXXOX/5iJEXUNR0u6L0/K+Cq7AjcrdvpKW8g1stANxuSeBFWRndECK97bWaDnHQ6HPclw3tpxLlyMBvYXOJzM0umIKOIRBYKkknpqCG2WtzPKlhvJCY1BR3+bESbS6HqJXLrGrAsnQ5P1X3JafKP8D1+XOGy+ee2b3G9bSTr6NaY5VCwNh46kxWv7OUiTb2fjH837szjAniYRjxzWffgJQ6koVT0a5Q9uV47DgwlEt4mwU2BJChj/wiywn2mZHUGKl/2mA9+xn17XrtmU5DDHnR8xc1E49QH07PZmFgTXpUo+b805TsM5RIgEU6sWoT2WeOjqydmsxIoCJrh08wqe1kLhMOlUmyM/MJanhn7wy4U7J+x9fKrT4spyaquAxxNS/1q27OcPM2Kz8if7ob+R65y8AGmRGtmDdMj5QjNlJCyQCQJZFmKePxKjI/pRl7+U3h0iaURtfJZmcxcrIXO4k3tX08wItE5BW+RqMc4rPmZ2kUEPAi8Qj73qw/MuKN3qJiPdqYmsezcvrAhe0F9mbAwAW+3DU5Xy3O3B7qk6zdkWzkSPDB3S036UcJit0Cfw4BoW2TPnAtsRoAZc1tD/ENkFzTYbhejsnt05wES9l4rJgcA5oM/A63CIuo/rXI4oNTr0/7j6FxbMJd2IwYLWSk5nWm0UiaIOy4av4nNXxwx3ikamhFeuhHOS+QYnyGlLpGnFcn4qRazS+AuEGOISvP+HGxx5BZIGkbvZCLDW88uTncZce/0CS08WDNTqTgGIJkNqDySbASwiGmQWKLGrIw0GHVG5+m+j6oXtEKk06TcoVw4n/BA008y7jGydY+e44eWdNi10Wqw6P9D1FvdmMhbIb3xTjjtngsMa0dGPWDwJclshG28HT4f0YjfexRzq7W5Btxp+xWPb6jDKGKodwRxliR+jvwaBN2ozq8GwJFfJ9wwxdmMx99V7ck4B+vF/Ko/XWdssjER2jZGGdX+x98Cl2JoUV3vqq8GPXG1jr3512Tf19VradPXrjYyBfia6hDPTrSFBrk0UZg0PPruOMkA2+FGLPJa1r9Cj7itkOId25zVIQ5SSoy66Y8xyC8+AHyJTCDDNO23Vxkxv/HTjMnp4l1W07hEWiR1rbf7f4+b4UCaFnIsDktV2oyNDb6YqL33QptH4A5WWFf4PPaQf5REXOTMMJE1hQ0g2VQENgD0k91pe75nRLgCRVRAD3p7M8kmN1FTfshxqB1RpXrvZJJKdX5pmcEC7mhuMQAiBFKaph6/okqsy4njlFAh0BS23rMX3icxMekF1EFzYBRWJ+ua6FOSnj2Pg7UcULhF3A8DLdwmWFzCFHaukauPx7Wxa5X5R3Aw/UyPFdqTvTh6gjq5ciFQBGsnOiRR/D4FLcmXFnid0JFGHWcoVPmCZyToDf/4wIgeH3+lbh+9UIPA6okHXKJ4vCEVOf+3FpJgJSdThcGL6OiDLDPHSoVb0YFSC2zPZcxywigWFJJVfD8Y+lzizSlkOWCd88p0LjFuhx3qA+eBKs5hb6t811N8J1RdphcMIqV6MHXkSF0Q1Esb8h0LTVPeWYKMfzbw0PAwH6NLapIR6dlVc7n7pzp9NemQiErbPhMwZ0HqufQ7ENs2huzeAWpw3gk2gHfE4rNuNX5/6kyVNUofb3q1KKKEzrnUBZsmI0DuKnsI4yzUwbv9JXifpCUS9GzymJE73HI/uL8SJ06by696pUY3hMdFp4QX4O6dyQwF5ky6l2Bl7jPif6OxYJSsVSTMiJ6CPVni/gQGqg5RbQiIXLBxk0pLv7QyCaUsCp1N79nyoAzkCnPr8+GsGwGO5OeZTYfL7hvqBoyDTHzrCDLA0OaTq2CbbbR/zPyhlFGOari+1VuTNFizpxOqx9OnBR/I0+N3G6fpwsGMGohDpzScfwE0aBzckCImKfmWVci0fpqTIQ6kvWPnDjA1+OW/k+C71L5+A0es3MAjKOFLCh4/JOStO2Gjz7veXS+zE6QXnqP7YBUdcoD4b+wjb+s00VgIUIg6LoU/QMe4+5hzcBXpFT2VUmWhsAvXE1+9qRQE/F4oQktU72nyget6SJat7up8AcStJEhVDvQje9Y632zLovDse6WjE5hIYXdXbAx4NP6PVNRPyEulLZ7vJg9YOJDCTr9I6CiaEvvg8aENTkb26D6BIDgssyHfcHt4IRUoplfGRrD60RptKlgA0taTv8tLJ9LEVuZHQ8f4F4cV1pfNpbkn0axD5AvwJYzli8s5dvxp/yTkxqDyP3luAgCuXboIRB/OGoAHIWpOlTAUyyNaV+hPU5zhVVrl1AX93iIzQc4HDjgHN8t7dIkBA8hV+hc4LDxw/JKQLLIJ2QGQOOe9RiJAbekn+RGAPx74us/l1X+nErvZUD7A6trgvbD/fcGddOyYGKYlDTYoC1siPi867XEYSO9xyI9af0eytNuGKShTRb5FE0UVA+OMZfvoNOCff/MuMnvMYahT0ZX8Wlq1s8XY64hFYjboQVHBm2ZVQZWkB9zBJRrB9b/9LvMWn/g+3A5nz1p3Pl+OvoRDn1SIRBKPjICMexZueK3UzqjtMLm9ERBTs47anlBVH8cHENZKEkbnYFyfCNbDK5MYbk+U+788uBEjuNfGQ+uhdxByi+smtc/0DiyCLADgRXU2aojZsUl/4aiy2nQgtrqwX5H8uvbjNV4xVn3DIhJ2o3hxW5Jk2IfYgI7kc0kGkM6Tn4CB8ND6BhBQDmDpfT66QTRGY8ivAoh8n03HcQU7hAQ10Y6wg+2bnqu8GRENEUYWbvKkUO5pPKFEz9D8zsSVy9VnAKP7SY8jo66Hj63XTluKbTfN555ThIle1lVPeNwjvqTMke6lgiWlVG4ctGOnYA/QQlia4chVxa+/VuWSIRC1OMhkcMvKLJ3a4wwLQWarUkKtiSlX70qMc7T/jzt0tEojQeKwtmnIrmeBX8ZB6jT+TI18O/CHB4aC4c6NBwb2x+mamB0EO92FGdwvErrABpGBTv/5OYR/0ZhMMqmahDdMv1hCLwAiRa7BCw5iHHV62tdM6JBtM7IUAaG/8wlZmgmhf/12GCVARC1Gaak8472oBturgd3sPmLkUW3mi9BTMe9X2q1EpwVtksH3KzMogGoSIXzrNnke9HtJeF9ZmWaSQ5neW9wzSMaToaIEn5k6imVkgaezXH3b8HgKCl9GbpAT3ZDiPLYlDoLOii5yRMa2fIKvpYr0QGAUS6ZYDGBo1dhyyRF0dLPhFqzRjwdZWq0BZVN41YeFm03EWwlfuB7xYfd0/lDYkAo21fIvro78LYRq06L4eeD+nv0Ouw5NDI2jRNvkdIkOADazaRW75QnUpVrsbWuXkQQja7OVnTPxWjEYxUywqtfA5f6DhC5WJPfssOSF0dRVyRhWfeqQkdQyVx3v3KrSbe+jkD/PGDR9aWGJycTETiMYpORyxXgc4GTcJQXBUMM2Z9S6Zr+BwDGpTzFU1C67tMjcKzluXlkIUHpY/Ed4P9KIUb5NmwcLwbbDV4ZGTjRAGAkVRRbhPYbL3AH6vwTcUebodkYK/TguabSscZf1ofWWILjOJMuq1QgoaSsi1UHjBZlV9gKkaTXhLpkHWgABrTgP3VnCvrlca7JtdyejIpJrloaedgAsTXfjxuN4mZT1x4qDTw9MaS23ePJyRFufVZlJbz6T9QMKSZomTK24fQEr46TDWnU/dEl95ov8hGOpp829MSesvu0eYWytL4xAf8/z80vLwJ3/QvNpvGeq86YB5SHDKMlLEh1P3LxiOEbBZNANYG9nAmgC2MeDqBr3fCoN68AwwQjKZXdr698cLu2B2v10mk1TZuDdjkyJgCuqhvjO03nlRL9LJHLEFbJjnIyGdBtQcLQn5WUJlmfb+KgPdrm7hRL41xWjzcBqvJz9LFQUm7RFNwQw7aLCF8mW51JRpXnjvW2S4h3TILG65bJVO42WoqogDm0oWyYI+e3rw2vIBN7JTjchkJFTs8CEKRqrCjDHP998i8hkEIJVKkYnWp9QZLsBG1cdeb+wHuID7XKsQbQoEuz9Zd9NRs8fp+KF4m2uKArl4IUo3fh5qdGRfwwRASYtReeDET3FH01RA+kotZJ+FQfMG0PCCziyj3PDrwtFezgOY7qsWpw5UPhrZ3cDPyNF9ZD4lSJdoatLQbyyNtb0Sz4lqDN3CiNp/G9/Lk58gdnGw8HqqZ38XKF2Lu3bvjhsEaRJwpcnQC5A98K5YGBZRO7nw2V8w8AgFMD3G+g4Wpwt5vbA0bEZet5AmGH5+2WiC3SPqaKhFIoWVzRmmJG5kvt/vcYDCRLGBC7FEQk4zWsLstCPftxQ9fqsUpalFTJzzo9bUfQQlVA4+WAbTsxcvxPUwiwwuCLFbfXxUH4S8wTx/wunXm3fjnOQlvet8avNM6tFvTb2m2WQAKh67/WO57EsKckvA7QTxM4pP3ZI+No8Z3hNkibFw1I90NZM6Nu7upaKRAQ8+yYPaGLxFL9xYdoVrE9bloRGuCFpJNjpFU3iV/45bD0wBTCKpeFd5t8t5IR697kKHRgBY0b3/05Re/fKO9o2c1cXRotlLgcb+Ff28jBrdWaIdlEB2JwL8hNDDjwMaqAQ0KO0MNEeXuxSxC4PdeSs0cQtoLWlwDlh36TceM0/gWuBeDaemRz/IddVj0GDLWFIWPuVLCzxmKwUA6IHN5fC6pfguohgKrP4ZzlTfTpbYrEZpYX2AWTY7HpnV00X3id4MVAcLc59A9eTllYyDy+FUjKwPfMqo9JABkzodZTA3vPXk7BNTYiKde7gsankSytDo3LF7lMj/TrdnM/A3YiUlwBUrxc+/HU9DhVF0CtDQUPKrZpoUB/Loz2c1Cb/Qb0OTAHcLNtiW9Lx7ZlSv+54loUxUPt21bUbPMyTzSJPelJgX5y0uknmnwTYn3Cf9ohuXgh/2ejz42eK3yocZlw1Vftb+PmH1W3AaGtE09HG50458KtvMF6OnMWM3ASv2dv5IfYxg8rCZ7vWeQ+qj+Q3nCH2cFBqSBbYb/kXe70AfwUglDqJxfvN2vJCxDfl4ngQFNhmG7jMObg1HQf5D3ezQtBy6YV/ynBR2uN+kV45F/lnz9o8lXSVrU0K3Np8sPlbK5v30tTQ2liaY5lOPGRNzGf5b6B1fCiIrRZYkbg6DWC8qRJXL6WEiIkm6WqCrlMKWuT8LCXn6d2DKkBpg/EVdIrPj9dg8lGjlQaWz/gQCcH1vnWxQD+lAQVeol1Cuc87yDz/qXDVzhWBhtuf1S5FrAoKav1gHHIQhjpnMkjL0VrYzGLIKwqXwK5OmxbWCkQJSh1MWSPXKpfN1h+iQV7rWH8POSF9Qwb2KBAsRozSm9knrort8K2vG48mE56l4RP009FO26og+zq1Yhm+mCh4EOkid+bm/rbvrD0eh3QPuJlFc66BrOop5i52CzhFtuLyig7Tfk8bShhOOMzfYXCHmKsgTdqZqxw3azEK57j4uuNpfB5As2M+RG+6Zf5K9IjXyEMIzWoCmKAkW0M0iJ3UjdGik56RbPM8ny5dqkx159X73vqQOKZKZgLOB4QDvHcXpsVZc2wx9eoxuRTR+QsEExZ/+6Y3Md65F7jCnNrtqWU26R0OHr1RsYcdyEzFpZoL+QgSlv6+dcab5Ng8oi1qXQp/mfT5f/eF6F75lAf6BPVcWQ/R37MDpY8v3aHwyyI/t58qOGvYyNoqFzj6iioweZCrZG1ZtwbiZsmnzBZMMat0tfQ+Gc6pHPao4dHgZbTVjoK6hXTUHRc/Q9cHOl/firlHGni1xynb8y942Bj+iMotzkOuCW74jLI7KK773o9dDclnvMwsSG/apJSWnfpfK1kGBy6MNonbPCpiHa30qhxhCRFaYeoyBqzdR1x6TI1pP/NRDLitNll0KlTQV0e5yI9wPbrRB5+oy+EZDhJ1KxJWf+GynhTmQWslqgSFSKmNOI3fs7zt2Ygqm8pudrFOc131OCrVd8C06GGK2Bg/+lrOvfz1pZrfnjqCBwKAevEKIOjEwB63PURv6Y35LjziFVyuc1TYeZHhDA0Y+4uiwP2xzJd9TRxIv+rPuwhf+ulb1VyaS1C74p9zlZ9BleeGn12sJvaNFI4fXocmrQ7IWG0AAygyikivquFZSFCFGKXo9gRnAblvZYoHC7CMSaWdLRLTmae3NKinDaH85MZmw4k+Iwo9KAGxtYa0XjUpKtrGcTN3y7oEjhd/rCxgrsIoxq2t4uuhDPXIF1zLEcN5pAwX35cKQJMxWMy7GMsNLRH4IQ/BfbJrj2pohL2O+Ou9GivdminUc1vMSgUmQRXmlWSVmxOPYuoovNiyNIoq+mXoZePijqVdrQnJdIq42wDeWKrbevF14eeZ/tzo/KxKXZBkePYPBbMy0h+3YrRhSJJIlRecSaE/tXNETOAJBJhevM6cohH33D65dwYqNl1HTqeF0VqzVHrvL+cbPn3BA5F5YBhqj6D/BYXau5rEsCER47//IAWfSD4hXmv7MlGejyPDab6hUH2vh2CvqOOgMd75kho2sbj9jBFw8/0xUeBZuzp+1882cI1tcxi59exFXOMJ4lUIz+xg/Rq/r7zhNBsIiWD521kYb1K/Ogu/ohr8NQr0FhpiFHNO8umBGqWKqe8GccXBXFASGiI89h3yedrDpnonIfL1LwazKNW4vAQwv79hz10Pxriwb8t4kwaGrcqIhqTNlzhtyadAJ38nYDQblLyz/nmsg4Cbc44V72cD3LQ0+ZaaoOiGxFgarmJNYIiIqV0SX9HOIbwNAPVhhE4Ta+XbWyTpNxP1ajnKukVBToMDu8po5PubWYfeS7LSv285/N90Rs9iSxtDt2i8Gnrn+2WQBMmg4+h62iCUq3HFj6geMdIu62hGYkOYQXb9glt9XqLWPmXdC5JKgq+gKShtgTaXPwvOlKTBLJBHDo27hS8dRmIspO5QGUX0qGsKjEdwC5uIYC18DazDmFihK0412CZVzuZHOoYQ6rDgcxKzYHqo/7O0JvE7LIcwfAF7AIizSMSZ9aNgjHqh5yE54PHKTZMWIavUFcgS0MHwLpQBMz0CnS9q481qe9ONGVcPsTHYGt8miOTf8xBdkaoV32MD4PX8ThygEyKfnzlXcw6fnpOgHuXJWJsBpsEE+5sAeEU24g++l7rYKPpKqrt/3q7eICm3XtumU+NFfg+Bfeu9CoQVzzpwMzFiq+SEq+5bos8Yejp0kmdFerESNTOffMirGT1xgO7yaMufhX3PgLMvBwkJXxeMblvQYTAojUN9Fp7+ZRilswfFI4vxHBuxCfZIMFdMUrJlPPKgSztHsOqhwKe6ozHTlk+BsN/Ia2GAxapcN1OzF58AIFGPteXEVVZ0oWQMuxVpYxS7DH2+LwgUGADwCLmwxMKZWXs7UBmFaLD5Pm2M3O5SfmSWSTGiVRKTNIRkvrSWo8Oqxqfz7MQVJ5LC2H5n7hEcPd3himJnOnElMAG8AVKHDI/u0MKJA6xihpk8SOp6oqH4OCQsQmYshnOxc1dcwIrc1JGPWSIQ3J/vozbn12ACF+KHVh4MzR3Lsi+FD16t+S1X38jtrzfNYWelUUlWm6sBGSs4X6nnqiqaAgBgkmrxtG5oa41VljIAY5Ck9MsbP0VasSqd7PMpqQRdbVlD4juy4MIrKB+UjPkKsoows8rXWb8PVDQz1ByO5ScS4aNO92KFZmf03OuIIBW7e6vW2BU2l4Zc1Qwy+epodhAYR4dqH+ZTwJdSwU7Aer/6owBozmbP+liYd8/00zxzEKVe9VwVjEpAVYTyPHl0h7pPCtFw2q8w04gijtz2MpDHNqvZN+ImaXnfeEs03DUzdc8KZ9KuH7n32VF3O7KInQdlbtWv5UP8mSpMm67fvdbLfswET6bgzsVvJJJWuvWyttRIIjR3fEtj47v/eWqZXI2hDSJJaOo28FeeQ6c52EAm9JWenvyLzU3rzmof30jTlCNRNy9jT9wcnOHpypfH/QAD71/96/LSWRrJqqJpmj9BqO9rfvyTVDOPUaMUGnd2aTqrP6fyIBTUq4JWYyB31EDAxL9Y3JhJ/mRwiws/0NuK+fLdCTHJyZxVToEG+5YE3UC5paqpWdJ0YAj0Sz33CJAbRTg30A4XPq3mCfs4pAmkvUWti3DBcDCkHV//LlmZbG5D1ll/ipwAXjmmK1wD+ybctxgaf19AcmO7vty5yCS2+y620yk/N9bz0FstFU+wAqTrcR8FJcpySwOswUDv91EWDA4iY4brqpPE2jHBAdiwabY6SCnQKo7tnSPoZeDKt2PVSKxReTBQLzchOtPYU3an3ngPfiTsOyNbBbbMdKrkDlQ185tmcUvRoInHrFgng/jBSMtfAfBhQ81PLop951GVz9nNgvMJI3CSQAglt42ARQF220stYeULDP23kJHroOy2/OXca03wC1vn6Z9Qy4w3A7H8ZfhhkSXCY5Vo1JdhnTpW+kSHyXYXsC9Z6CLHyanetV5E2ZjdXekYBvilzueySyLknL1ONh9+1DCmwYZgTncFwT3WaGXGNyNFQEp4Y1zOISFcRXx07zPQQz5Q2tUUFbUbTUzrc7zCbgVRwMT49nwfHkHIgJLzaIbEuNzGSIIyHUCB2rVXxFBQE4ITYkBai8isdFkItPm5sPTEzxM0EzeweuArhRuIDzGXsZRhVQ3A0VcA/rdIA31UTNJGTCSgylZgEj7dGqd9E+FspJvmA5EQfOFarNqXDlQeOdvNOe1n9XZnaqSHU9+cxsDL7BffHFeWeCS3PHBiQC684RQVhqlk9/u7Ap0nfnOQPtc00hMCUsNJOdOYLzRUF8zG8xTFyou2o1/PZ4Z93csQ6APcKS7LnHOEC5y2kmMQLqEbwWw3z+WA7spwf8OJ/t2++exlItkOcowTthLJPSG0Ks3JWl/MR9WH9kzfXnmgx+5zpF0rp8dOM6zqkxqgPXomQ8jI5deyN2hbfn9/r3MARQPMdoJw24XWt39qQzRt30dWhsmlv2fJWURDCFj0mC9mOotRVFm2zraeDUHNgH1H94vV0YN5MILN3Fr54HF6qV+TAT8yFcJR9VM7IfeYI06VjDd4WYyaeFPl4RRIbR6dNiMh7c9O0z8Ugr1o8+zzK20APhRgn7i0oNaQBJbu4h/w4aqrKzVUQG7PtCuL5Gki5qLWnczMogHG3ffAX86Uz+46nbWboxsTxphb4jMsXShInozIaG8EW1eTP3p9W/K1BdhztxmaFUGNJhescd4Rq6AwnE8sXqS23vxc/p1rv7XlUaOmQgsqg+zQwC6byed0Kh8MVuo68ZYCHGzItMvahDxTaRFxPwLBUvOxJUzqMIC6+db0ZzooYRhCrf/TNLyPwdyTGwb2c4mksknULi+3YwIlYJBWFD7Y/Z8GX7rH+Y+xDNPCWiw0QksqOpDU0G3Z94dqLCYVWIeM5K1Ut+OkNToKnThgNi5FPSJps1v459pbo3HJ9rlZ4kMqtol4YWiBXHgd39ZA+5yzuxqR78wI58Oou2XpDBONCx5SbWVjv9Sww4PZG9fj1HDhxGqFvoyeUGe7TW+HfDBuGO/oexWDTTZgadd8qS3ZTf53BP3BgH6nX34GlTipx0SoOrvBLsJSmxjoO14Ln6sWOuO16qTi6qYnuzYlFZtP9Pi0Y4yZVJXbASJ0gzrP5an11HBQtykmI5k2xAKrMZgF+6JYH7ml9c4jo3fmXDAsocS+LiPA6MIfXcnEDvZLBL4ZZ3zjb/2F07QfJo0xrqvKdk4wg7JWemH3aizCs17VnuYFCLTASNd9Tl3bs4GUTu/IEej4RijiXZFi1JeQEXn+vPNOMzYF3dMC8L17MNqCIhmRDlRcmFPPGcJCp6lUT4XMjjkWQicdepDSKLFb1feYNuRn8EC046jFcLD4gmxGrvsdA3AJ33FJ1R9loKkSaBvKznT12xkgWJQESa/+L0XjBjeh6YzSTe6txSkC9ZDPJnWoB4xNSdpFreSCdD3X5e2wKRrCUTbKjT8cZOo2QsZdR0eFj3o/Pt4ZZI+FKz7qHmRmVjIpYCxteDhKftnBBUq8NFeJzaq3+Su67J0cZLdAAnzoPbPj1sBCiGJXMjYAaHDu24gPspPB7V00U47m3XjsO8iSvK1hUMbbmvYbjP3AfFU2p1okDyGpvyHuV6mpaHM1tpnydRZB0sT01dJ0kGErdesju4wwEpDVruKowPyagh7zxqh1K1ILUHVXaM8xkqnMnAXTonWfEfq79goCG/KviKFcVuKFL04mA296cPbW0Y8p+Dl6AvrzYSdJJzv9wVXqINAw3QpR84KFgkAEvEn0tIM+ECBDHVGs4IcWhc9MhkhetcscVAka5A6NJPFxqbp3jE3nu7RgIuJveFcmOvQK7kJ9tAE8UVcBXO7AQGaOij7L/e1xE/WuHBmSdLxaDn9H22culxOfq23aQxID/mU9gBDqCXOXxfKdDzvMbSJg5gpTJPBy8dCkjNU7LGpsiG3A3ugFtPOGCXOGb3yC3jGSBa/fl+VkoRQsYWG5hvRkZRcuE+QReL3T7VkRXo8DfY0W8u6SGiJwgEWdQLtwE5+mJ5IIlh2FqOZ5b6JGiiFTPU90YG0Ehk/rXpTPHqXd4nu9nK3vJBErL0jJtItdT5OsWf012lK6U+awDeE5WS3eU12E2GA06IcXkGPuhLz/aMAqy/GiQ1mR48WagjC5tJmIOzLXebE2JvewHR7ilo9Vd3eUTF+tQ7nAR5HnIjvN6jKe7FIA1KrrA6wHpUhergFzzSTA08ma/Av5L+QneG587HOsU9Di2fVdjHQGIkw/+L6ajVq9KXTsFxgqTGdRTXJpyYt6tHZVcMiBoKmgLQ6g7BIXpHPUMcCH9jpXEvFpoQIhvT9D2F9A5KoLWTQ1A2fcc1+j1WESSQD9KWPBNgGzNxnIz0u3PN4/wSSX5OIKhQs41bUGOmzXkAop6LidBScdLzzBqjbqyBcwddn5Ai1ByWo0c1mxGqzJ5j+o/pcR5b+jdrhL6JXt+MAHVY2vIs951uPBwJovbSJg4vmSgrpiQKo3kmW0/RH1cgmKjB3GD++WDuVgZa9aKQ1xMWmX37bHsRf/z5XR7WPQm12TBHKFmq87BdHX2k9yRpgV89kqK03TJeBixKz922+aIFiyADbSZ1QOGEzveVVI9IsPcr1vSA2Bi8YZgnLHEfjFQqzrhRaFlzwJWv8xkhTNfVIDMy0oYfVIjYqPZFVEeIAo+nQu2tsgqyqEU4e06YnJyfGIXjdUzsx38TxBbdy3xd2xHt0eILXyFoldTwc8oy4FlznGYRBrNnRIrDa0npI0yT8utxT4JcYXNnEAtUtvGjbvgTUSyN1+vhXdWuynDxSLvlDJWwOt1QYFSBsuF2pn4QB4zwLKucSvh0AoqNp5slZQ0MJaSPt7/Na4hKA6OJKX/45nQrtKRcqDtX57ffaIMrDJkI3tWTMyO0giAVlVRtu6leJCFuMxWKJclUTe2brvEN6oOQn20ATxPZZIDDxkN0yKLkvhfMJXDeNEI0TkOwMwjZLzaM6ch71HoZdRVXr5OMtO0Ml5SxctowM6yG4mn5B+2xjBChFuTEBn4VVIL+4Jz4ZECWfEon+OXmOO6O8Hxmy6oeHV0VvR8sQ+xz1kjmZuXxZK04YnEADpupQwkksyyzxO6DeDmzQwPOAXu6XNyy++t0rscGN+aPBXpwMc6aE58zAXoTzdqRA7D+dnvT1Sc7T5AggMeK02L8vQHE+e4j5k4Xq1RugYdydS3NFdoQ9HtlHk5QmRAIrgNBOLDIEHbgzV8NEiWFLHlhFgSyUGGFck8wyL6exRXcv8nWOnkDHJMjTTp3P2u3ljjdG0CVA5KQnGjKb02xrXHjhn7X+roZHiMU1IqD2yTkkEIv2HmZBsoDxlHad2KriiK5ZCor26mOf93ORDuwZdIoxK0knYzm37bgmPAYeljJkCCF8IZCLdabaw+YC3FL/gkFAE63NOKThFFVh67ygs2mQ57nUpzsh0Yzmi7XIlC5oV0KDmklEaxavmiZR0hhDUBevsmcrtilQpXHTI106NqDPtRbD+WAWWJIs9iVLgrXGUQcYCH3iy0pX30XS9Uyoe8jleQ3HB1DKFzew0rNncuT8lcY0n6Ry37dv33swPJQO64NP7nqd0MjnqS6DaPx27NuJfV2sLYtcRYbt6KftRrJpFOmSf795MtZR5lgH/N0HVw9Buneohe4WmRQ8aM/CayRuty7DOt8Dt06uop6dWsCA60HwFK6QsE5qeN7In1JA2x62EdeT7y4+wgHQbiFzmxAsWVvVENp8COXbXG777R7O0PguiEKvqw6l9neYt6es//500sqVgGtjX/v3kLvaBg4qnmhZz7pYeSH411rLHRdprIB8pCcg7+VW2bmyqpTv1th2LWUbsR8pn8FXOTFQWQyNQxUlADryF2953FeUfZYBQYethwIAM7sUfJlrGVhJZEdNB4wdj/I4pdOJpEqYP3fViv+FRx9eUjN2wUcMHU8CHoUtwPuVB54yoGesHdk/V3snZiCoTvnptn6upv5Q/1Yd/SrD4bH8mjTeAwGLzOrKLMDc4W80P580+pSZvaT1petP/Eq5TwBoIB4y+B7j8oF98b3lp9Ece7nuCSE5cwscRZNRb/45RyjOkFY+QxAYQueBjnnehx1DEgHhkVNFocNdFdjcMcrRNyhHVksgVRJRAg8b7FlvsOJu+t2zsvBtx4pbvTwxSony1M3emMgSN8JgWiGHr8irEy5aKdj2zv0iBeVI54XHXSPQ40ztdOkFavf+uHAQNYfDmVy+eTEtbxuqGQyygvqnvAkYlw3nwTKlZR3HIYIRBSyWSO/FOXhyOUaCjPoWVgsBph/Z7j5lFwd0OETmqDQSjp5EukkoHxtCWxX9soGu33fLFZsvzcMHlg/VeQZIp4+MmAjXsEOiSxB+ZHDk2AtZQp0V9mc4JgJQNVWhjyMu6FUxjEu8HdVzPj9K6DU3iFBqW9R0PVIp27O4j9wHQoJTLW8U7TvDnODJWdp6aJgm5RDo8oDm3k6P+UiVdF6JehNMGfo34Rj2uuHr/qF7IMCiuABlXghabK4ioQ6FYNXfVN0P0kgABwuRosnFuvi+oNM6UOMmDrTOXMtjkT8UPp0Pb8OgA67qU9PYATQvdxgnzEO5ExDp139H5ntHRDaqVBpEssScKOq7GoLotrt5FWOaHCyAkwJ/BYQhB9hA/UZNGRe2WUICmtN/fop4FhmbMVQYULkldRuwoDt8j+zZ6YLgFoSeZNThD1ZP7oIW2+5lZ75VjGkxm8E9ICp3m83GQ4R46ci0eRzN+WzUzoFM3at7iltKc2XDe1jqLZtEYCA/06YA+1hnMUcojObMPMEGRU/e2pRRjlUv4bpXyM/n50AbIW5ThUqZw/yNp7LXx39acZt42jrQSaMWqd78m5IlUt6EsvvlhrlSgW/I2Aa/PJnlJ95c/DJgWUTmfcXYRtdSwJz8S568QAlM9LhMm7HVQ9HnTl7eUe1dO9CilRQZvXPR2xSgNb3rY4qzNwy+DFi1kPRgNFibs/a4tP2ta26mK1oHOI76pc+dnu8+euRv4uQ6HOG1Yggdejui3eYjFiY6TJZpDv+vcAvzXlvHRTEkEmQkEYkqo1UjEMEZlIICueKhLV9tdD8m0KVLtDq2DFi/HPsf1TIKNMEZ3B7VNLmi0eOc53pCaqlZq4feqx8B1+SbqC16NcSKxf2gAqDZdu/+2RbhLKwLbdan+18Yh3LIIuJSwM0+CVTkNRd5wYnDgUP72BE+W734BlKWiRRxSRwUgTmfJ7Ra9i8VD+YfhtixJ4aK6vTY9InUZF393zrfSKS+Y7SYG7MsdMuQKcyaSOfabKN6cMFcJW8dabJagEQxY/5p/5UlF4TX7+cqV1DNF1Y9P+gsdgTywcqPlgGQjJByfAc8xDicR8EgJGwxYlqotOV4e2y60gcND1C7Wbx15EFUQiVsHVw2KC9LPSolVH4ewqyEqwoUSN6zA9AIqcA9m6CuuNxbZZG2DjyvioZpr+l2YR8scOle8fNc6kSdFJBgyNADK8ln5s53EeKJdNCSHtvahawNYDW5d3U3wMdtoPtoOq4xo0BLBb4clmPLtdVjVKuIEfVk/AnLYhw+dD34qwRROQzLMEUR2PCJ2qLUH4l60012GQFXhfx1awmT7BD1A/YYqnicaZoiwStF1xDeH/A3XSVPn3dKigKWs3mvDYZ4fGNqQYUxgoUfG+UyeGuX7vyu+a0kMG09q44pwWQ00hUqCAHdUp4NtKMl+WrslHihlDClN+dSywkfXmeZtZRgwL2uJfiyCividzMCu+e2nHTnJI+hMvNpyWWnCJeTsiFCCIDa/TpAGSzb4WznirYoJ0YC/EmmwRmKhTLt10ocWY+l226lb4nZxbLW/ttw3NU30eXj13LD3whJMhwcPa+IPJWJIGzL2b+ePzxL53gxNUbkp0iTvIfFLulsSf9ze1oj06iN4ts8DlLyVldZUYAkxYVTReRnEDzBHzc4J4Y0CJKUHwoZLcwIeWraRTTdh8IXOrvZ/sWtmsrOweeogkoQ0SyhVq0501EfzfISnOaW4jwK+3Tncy0HgxTPtrvPulCdEasMlxRLqVUDDKjnJJz/BlqMJghSnYJEP1NkUnYahfYeURsaaFzI1obYH2pZ8pSRE7Dh61MOOAJYzCEp0huAKDmSeT/JbvUnXUOdX11bEbBo3GNeANe1Z9BXSyrzKZ+qHlfALFC+G71JRu3mfQ7KQSK3dCwor/XzEwCD8Rmhe/kWi+fLNpqBZQ2NxohksJbHlDo4Rk7fmBxizAJCD1SCQ/D21kJgFHuD3LMCpnAoh6mWUM0iE+bY/kIyNN+ctmAwvXYQqsFk4oAYdDC6NFHpMfbnlLUg+ki03MJXG3uILSHLS482lFFVyBDXcWKDI7AcU6YHN2KSsP7hTPexKcTBJIHHP+6akVRLxnu0tbW0SwbiSMquY5qAgAk+ryoJWgWQT9erssGQ9SiIE7ynLv+pdHUSdl45pLRxKk2JvcdrQVxo26+wkW2pQgCgS7DVIp2m4WbDioQSyxmuMisJhCHA4Q2Yv1iDCyunUc1ehFXb55mAGrmWazFv5BKzq1B8FSapuiEtX74DBNXICS6fHrlbfsYftBjhh+39OkW8GtczcCOEFVrnvjx5oVXCTshqEnKj6Ta2xEN198z5VYc+YLj/cTGs3qdMDMx2dkQgbkfeJK8EbwAvkHA8dvGvK1JGnUWi0wki8qonvbHzIE6Sa3Ck0g6KTKoSh3fiUvORJJAk3sjU1CM3E7XmrZyFZSbRn1jRhj0DHfPCp8OLoPo7bR0AmqbDi0Y+jNXe/K+kHwxoR/5Kr8eLPxhJ6XBLzRRzKAHwaz9UiMAZzRz9TEGKEwxt2bNgOavjrgX3gWHPkQgCsWRJ48F0RVprLeen+aVvT5jsn+tbZ83SsHCiXXkBOCuj4Rpbb0wBBEEjxEwVFXnYfNlbSbho+e/uJwpGgYRZXjyvSC3RtSLndLinGOB/VshsGbH9lFPdW0ws0R1p4TEn+h/rrbHGmDnHyA2hJ4/4qUIL90/4rrpL4AJ/z6AjJd5+1aB+ZTFtC1AaALC5VJZRhYRg2n5xh3m1KdACCBRCWO37U/QPRZ5L6oyIYHO7kKOyR3/f3Sa+UBgAg/XhfFhCjo3dBWzWdUmJ4R6+ndgBfSjPKyT/CUVdH1141jtg42LgWdMx7XncmaO1+l66O7kZfxGdD+EciZ2Xzhu4BSZD0P+3QcMzvAnBZ8sATGkVbF3wZgA9NnKfu4miRmyZDoQ6vUQMPpitGVaRTAElm6vCG6mY/D0Ao4oGXesV3/KqM7/xcXt0fLv+TImWMHmJ1zgL0CHQWpfxh9sBo4Th+78/tBTLbkCLdhcVzvxDO1683dQETJARAqx1JfA2VAe1+E8xMssniwdWjSpH2LksjF/Bt8HAkcqJid0pve1SYSAOQJQYdDxHrhd9bSfTgDky6eT/thXyTZQQkonTq2+IU4c2wTVYJxUAAOXUhvEKGDB4+Gs+iwIeMtqNZQxyweKEnLPLbKvQHihOP0NLyzqFRrnMIeM86qmh5J1/tOQ8jOHb8A+M19HjpsYFhx49GwLddAkNlbWecoqdSciE1orxlRiWe2OMJppliXaEQ5jebX6GTzAsKeZqyjX83YKYSRrbiqfJsN1GKUxraEaASyZPr3DinTe7B0jf5jf0X/bHh7VQyYBI0Elvt0HINRG/4YmhQe+SjTUWQfyI+7PbZIAsbM64s8bOJClXhh87OhcCWKsfcrbkPo7YbtwihBDUAH0RJvBLJJZsXKj8AelV1FlXyHbSLxIxD53OwAjEn0W62bRARim4Z2+8a9sdUTt39HquJzJZA8rEYX9Pt03t2a6kif0IsTZu9mWX7YOxdbAGHd3WkfAJc7m2PO4iDddQpZPThbE9heWMkslQnJwywHl7ziAFO04ZwcIjwHwiUejCt7x9qhFzs5NnizLrIXv5hE3M4SN/tZR+qozXynx1yDjviOoPbitliq71dqekNBZKXMiwhViFEoyfemSGRQ0XGQxkA6vud87nLEChpeeBW0YicJPag0+s9lhWRtwp9keEEoWlTiRVhep3+IZkx9DcXSczTA/Kaepdzt2VsfKGVEJ5RAaJImNDcf4iXtOBS7DsgWjE3GWRqibdm2mosXmOaeCKqejulN/EfhGeOkcKmAYqLygrNxJ3jwEGEQVTTX+izh7i0DRBMQZ6cyxWc+9NTr4b16jVQ8aiTPZQ8ysCV7dbnu+lHKXaCkKj/+d4SBjBW3Wx6M5AMs7JJTQj854XQs6qbNgYwWiiCWNWdnJZb1tei/kFjuh0Fay+qrFKgdzG8Wp6dM5+g0IZnmLnmmUGqMLGK6DbMDW6KFjf/isE0H+qDHp6jbD3lgx5HCjOMVWOOqa6HXhUF7elRDCdtwqHc11bVRnmuQhLobHz6wg6ZMM0PAVPsC7a9aXD6a0M8ps+01d24dhMOsqO5nq40UT5Ic54nVUKFgIl8lNodNosiOo4b/F1cjFheBf1684JOjEJloBKwdiQjnHhCWSGc5eyZUZ+EnKr+QIY5Q0K0gYGFrpQBhvdtr+0Zgsq0nvAomrjzxgu/N1rleOr22oyO+wpvPtkZv6x+b1alPbaLiJOUiJ0+IcfcnOG1bzbrLW1XSBB773DOD2+OnWZ1eBPk1W8zY4pkZC66dPNdeXGG3vJwxlgQINeBiQLmaK1nZDYNwJh2a81GdeOhHHRzTtvIMuJz1+b4+Xx2AbjhL3l/IKm73CJtJuVsse+ZACnl1Y0AfJPQ00owCrg/7feoFOKwgyEeUcn7TaIntS23uZ/RCCacmGKLzVEJCmjVUqCtjyuIRaPz4jvcZdKGTrgTv1XUoxigNnCeLx+78eiNqUq2RM7wu04fGj5aaIlObMZX8tez4ooIK2IVX3kQlNHkF/M5Z2Etbw2zEPZ/stpu3BTK1uBq0B8XJkw9iZ2NDhQ4NxlNsezkY9ZDI91iIG1zWl3smeE4rUQ6+EMn0LeMlSoFEoPmM7VdLZ7paiSWEs9SpfM+rNcerhbc9ET+/798Me4NenM5SjV6TFsaqljpOJ1Nr8qUAEH2NB6AimngHNfttVS1q5an4EAFHUcmhLlV0JsgQL+OpHhyRf1JFJN/ya5EBpTThqmT0WvNjl4JZLR5biCGRSE17RZBDDh0C95pTDYLI3TOja1cax76il8zqU01HraB6w5IqjMZXhQHyvEqZGeioXv8ZJqx1RrCfJmhnDTnKk1Q3VhdAbV3dUlj/6vAxgaQ5UXCK8SUE4uf3FsDQzJY0VFOkBCCjbATypiKRqgGhWkrd0RymAYLnLN93bLZyGskMRgAQ4dNdIAuvqNpEne89DHouZUKh0WBRCIZctj9lt0NUrJQRqHCb51JTpIoWi+OyAh07tGQ3VxPHcTa50TFhTwa1X9Fd5ALPLNzV4P58hr5YVBNNT/wbaKagAFP24BBm1+WyW942d+wJOXyE9mIp3XlbMIMGTA/ig6u8AbiR4YuXWcgD8lTGXrJm+h40+ppnyHjP3sxSlwbcTKlutwAxEQjzbXiN0FTVdH9ZBrFvBALZRboI10VqUkUemieoIWX+TJl9KQo+V4U5oP8ldCTJdR76YUB6k82VFNpWUtS4urD4fiIRv0m5CMUj/Ak6bhYxZYogP0yyeHACBuaO3tY7fW5QHl0xBY2/vzc5zTmahLfWZ9RGGmPhJR9yfSnQAFA/R4vGerD+rTpaJjA/Rir8HBwH60JfdvmMlrVSKzWoXySUjEJjg38ridV/5xcA4Dp87faAZucoZOqFlSKI4W3IsbKTuETYxpi0FX6mWKeBUpFhZ244vvdWwJB1weaxL4POArOi6lQklO/JqqpxOiJ2nL/Eiu0CniRb999l5FqGltGb3+c5Awr44e1uT4y/K9Y5nSmmaIo2yOpipQdJaHF1R6ABUvTxzORjjHn5Vf14zk8NMjmKcPBiQv+brerAoSTvBOJo8yilUHMOSPmWkoAwHNgRStpicBukSn0n8xOzD0xNJRnbNqszDfCKbB/4gk9PDSTDZ42+KoeB8G6sJK1XxSD6ANlB7NM1Bsc5+KgnZpYf9PZ7yH7WSdN5gJ6oJH1ey9/ALPmyCkcSGIbzSIR4pzo8b7owDl6LCDh9z4xV57g44syEBilcAa87SsUsvH4pTwjl60mioRhLt1QnfYwdhSLYzR02mCwNg7sUScgqBg3STN5paAQYL3iPy6BVAC6Gf9IJVC1MLK58C/xcN8OPn/bT3Hr35ciumr/gL4e2I8yxD0/fjDEQOSe4jidYgmcZmCuymRxkDhJ6eNPOdWq/EoaB9+PZN8KocQNuxSx9KPcIyeA9GWurcWoBUu3v43inBvh9zVcV3p7Y05PJOG0NZxphQonN89nRmvZ32oxbwBv8zVBLm6IAnutyPX4X+ixPIUFGAHgeqfW9k45OJo5vbIPATuySxC6Km9ic3jeJrrWzKm3FaLepxCMtqCpuZMnieIcjn3crGkpdR0XTll0TGaFhrD0s6+beixA8zZmHFn95E75qeXIWE+36w1baWT7dk+srgbj5FxgKekxT5M2Zbfswk4aJHi3hHX4dF90keVIdrpFxTPBGDfsYO9lz1kaVY76be55HsNloeAmEqE7SBKOYC9HIi89yiERtsRx1IkwoG9wwRfTGmgdPH6cek3vM+LD+dmJ9OElPy3h47eQgHP/mNbfguUTV750Nl0JigvMboVFyP0DX3nZmUCu9WXbEHQYPqsRGrxxbKC9V+SRD4goPV/kofrYZ7ldfvfDj3p1NqmHB/NGegqDB+yExcXQdO7IfT4sw6AOZ0bjgNnqtX/4i8FtEgtw9orQOwmtGtQ4cLquLPQnQtGvQ/bpGkDcj0gpV8c+CaePhDzy9vGXXbU1pGROn0m6SqdL5WhcTR9rQZi/C7e9NGmgFAyvmKtlANINeJstxK4eHstEzIsA6w4nOzlHwSKvLJez1y3ocu8GvAvx0rv/ZasuSAiIbO4U+0LSHNXUFysZaUhvMBv+HLXvQPGGd3Zlr4dMreeYwxLCsFewHy3w1rh3o24pKu+uXxK/uLztbPzq9/NwwUavZzJzw8+4RpApygrVRtuTvsWQGMOTnhqjEr6x/et7W24YLKXNGuDxgQ4/dK/tOUqWiiTn2OdqkyBRkG0mdfkgeMPveTP1IfcBCXekLwzoEO8B5R21oM7bl0MKkIhIEE6pdqbu4oxoQeeJPPYhg21dNN4mN3m0pruL3gwRo4rOCd9sZDZ5y22EtwK7azt10E0rBCzXmTwrlNBGkPc0yo/7YVyA6lb5PA1HxXTSVdjzYqubfgnBEIVKVVRki1lSWcR4klcE5x63GUBanfVB9NTT89NQSKYcj4AT2iMQQr8fCfGpc/+e3kh5egpVAK6dbbTLmr2jB5It8L9ADFbVbS2/04JBVtpzfHnrM3nMiF6nuv1ONXQeAqx5/tfNgexhASZ8MvbvRGbwOefrgTgUsEQW9oeceycOXXJSFrE4BAcRI6tRwEV/nLZRd82nr8liyRFO5flcIfWFrzZBfPkGIxHgnN5DABG2C4H2oOeipZxDDnztlFEGEYperhtKSFtsgpWGMiFmlUc3gMJsK5AXB78rM7CLAOLEmucSGwWhF7uMnwnifCsEnXwgRKIutD9yjK8eMhpFaMGTDIreD3Yf8nMaMvFUjyNoW0i7RDSX3ciGc4kpTW7cC31tclhm29UsnQw0MAWmVXBQReM53Ny+mptCHSa5B1PbCUfYV4Lzmm9lltDYlMQnowX51ecz+Vvn13D1YeZu8tidFyzJ999NS/LsskTOT9KHlNDLPK/90hNnGgRU2wTBpVXYovucj7krp60wA1YFLK7WRcxUOPj1zXqzMGwP4YCWmnl4ivi+jrF1jq9wQflGfP11YxdDBsJrjSYxeeIm7mE4PUGvfi1Cl6z293ThtGQEmRUUtZEP9+i50+FeAk/QOP04eYhyj2e2XZ6Vo4dpP+4nb4/tpIBVxQ3V0Xr64KIu/x/DumT6g14Rsq6EfyKykcyzskUrrTE+Ksicx7lipJGhQUB1CQ1UYbHpuXjvtB8OzG4AiW7u9KnPmhBot4ENbcZ6atvZWUJXsw1GQcxIeEJP52a+qHOfxXPGIvcOLd6tV5hAHzMmsgu/5O8TAzKCE+wv7wZRw30TkhXGaU0HkYRgtpD2vBL914lOs8rC6axC9lWOOAEpXA+lrEcLMvAbvqi89aKlVf6x7/gJ34J8q64vGRv/Z/tR6E3T5pEsqtP8p0rqZ0/4bDjvvH8R8OgD72EQBukVwDIGndS3o03FpUSv/Ax9nlIVemRhuky6iRkjyRpUVqJLNU168a2ni5ZT5H2pbpvH8obLh1WTQMJLETctaR9GGL6M56XWbUIePPruCbdSx36B7puHaz0h665QsvFdCnS+QzhKoFf6i8wy45nnA/vZKQOAga5jYAFO/501fAbbdGOXIOdNZwa3pEeGQrddaTsB5j1GwR4TSUU2yFuje0dZp/nI7Sx0Mk2+6NXlbd1NKgrceDVmtZYgdZwCfgmXQOuNeX4Vitvzt3qE5nBM8kdz2oN/J6xn1pVbdRU8h0LxhKafYJFu8/7kDcY6YEhxPdp+9KRMUcchvZ6NgMZClqkHpVHNBVcxMCcGM0nrNBBhk0DTHQNhhhRf2l9iVcEqnfZSce1YOAbxUNh/tawsuSdFc3Ez5H9qLyNfWMDyAFINZooJm3JMNP/hafKKRUg8hNm2HwUC5CGQa3DNktdAPSuUc7t9oJ4zBHYnzco2crAMLRErIx+JH+risG73kc7ecCJlayxQjgH2LZpAB9QMPRRhyhBsOu1TOS/ZPXb08FmPNkotKmTVmvrIhypk7NSpSIPOcuxjAgQO4cQJ/xcldUN2DZ9UIKuHLwKoZZ9wbg4KnjQzNTOci7RUnAbTPwemYOz1lfl1fxEbPoFNc/XAYi95pUr4VsH8DXiEXzQDiSF5wwh6n4KFFYYqhJvsWW23lby3RSPe3ojlFvyPkxJOa0w2BJ3ctraMDd2oNx1DRgs8K8+Pw/13F6eg9mZA9paZajTQW6BapYF0mUEv094OSVrYoM2OtdrVM05ZGsjvay1tJgVLq5WeAcMGfkGFo5zRDzuLAyNFu+iuo87ZnaSfB1OirE4ZzRzJgUSIUEBcUn5ofl0aA0OJTHoG5UeONX13ErfgWaZYGb+iLbkpCKgJlBWQ+ylivejdMq00YsgIgxhrbuXA6y6NCssDOoSKZ6aWI0RjBgY2oWbwVK/TyuhmUkV5E45VHRv/mUvficHWKdU6sCW/cH3F7bfgA4OQhf52sF3otnbQonOpGi5DB9RYrj8QodUzvzdmdZWsmOnYeOWS9D1Sr8EBK8ZJzAIB/NslsPvytiw4DPw+N+GDnsvIBmovINO057bhHtKsFK7af5zOK6skE3h8xtUIz7yfIB1w+wLNEzi4a5Hoxgnk2uYoAAVDeiIByLvgVWBWD3h/L3uDDAXDYoNsh+r19nekh3WrC19Hg9UROCC7MUE83ArxxXORGU15kNN4eRfC87XMjNoIwP5abKOiIoePNa2W22bhbuhpn6CjsNNSDftf6FhYqQuBhdBC+90jJ7oarIysgeoxb1f0lTccI7jRJQHe0B9mffyknYCKr8yTTr6ZzaGKRvSuEMmS/TJqGBOQU+57BruY848NwxBQW4XfUwHh2mguoyFuiZ2RGnXURzKehi2hjueXjr5XlfWNsX915H9o+XwXNZ2cmbMzMP/X45RpAeTT0FVxCRfJ8lBFvjrCl+QU1pEvdehqyz+mqqqfwCbd/bKG0IVn8Stk+fI/T4dNCakXB6ws1LgPfxI1lrx8nyGv4Z5ucTsGB4XAzQ0iVAJ8xAO6jtoQCSa72xNjA3FtCPWyJZPasBO4S7f/sYLKAlslU1W8xaf7K2EbdKer+Gks/OwD4rXh0ogiswD3p3Ib+rFRDuadILXo2fr4CZ0vIEDg5IaS3TRqYL9+nqjY9jNb3e9oJ5FwI668PeToeOIeF5h1kBRpM7zU+8dKDhuyPs/r8FyTFA0eHbS142KOhLz7yBTeXPE5khII5L8ZNwGGSFU5VjZ2OzoSwwWdvh/uC8Lj0SWryt8Lrg6GOz/Y5T1CYgPJ9C/vAwGzFcH7y6nYwBzNglofNquxZ6sFEuTx6h73oNTQz0oXRGIAtZ9Fd7/VSR2mWU8yO4sExN/xTVpIYvmINXqi/VmiaUfyjytt8RW4qHn9BF4t2aGDHKkDFu0/RYy4MlRMi6VZF4dZYlR5vi0Ph2znT1QvTlMKfxfCjASE0EFlemHK45GStPIYJ0LjkjJTJp5WMt22HUmE4dtzTb+R8IICfPbaAdj1nlLJrAiUEhz9tFM6A1gzuP89RxHCTmdfzwWTIEyfgzraRkH+ZtYDZOKyZu6Ax+EHDIRjs8nXQgjq3ZrXOd/WPvXTi6NDQK6/p511oXPfVPeq0012ofNia0ISci1mv6XOrepsO5PPp7YY7aZzozUTUdLvYQqmGdQB43+6r4T7znNDHGTUW6IT9dO+rbB2QCBRfkOtPB+Sc75fiXtR4NL9SyeZjWayTkWaRAw5ZKNBuFiImcB3ywzYDzMTeYCsk29Vg7Dq7QGVlVpuSrpwBKKgH5zJkiz9MFsP7Hn5zHwbwCK0pVR9Dq+qBs3vfXfzA1CdXUnJTqyd0vqRti5JdprhQg4MIw4RoxTEzQXJK675AZTugFNX9cr4oZfzRq6Sq6jKu6IKvn3XeaoYgxv8bQKoGmsAtigywuEqmeejgSA7Y0jw/RnVmAgSA0qlcuRCFCaQRdN3PAjH5Z7js7YDE3co+VXRvWf6nN2kuhMXiHilkriH4BeYv9ZzlGBTrKTwnCo/N5gB/InahXDNajY40TVCfNT44UHF/PR3M9ITTatPsGY3+UucTGRw6W/t5Gfaulc+/IVz5lBX///qke7MfLmoQnmNff/CVcOHv04QXdoBXLWmE8p+XcINRsQjZHJ0kxrSpvz59zNLvxWrnwQXlsPGWRjNHbDVQMblHv75L292ACTo2DdqBvPhmAMW9zoYB3HjC+yqQw6NuqR2KvY+rla0qdn/bTzKSIeSbPD5hwhUHgHjP/dqMPAfHi8x4jYyNkC3csS5kvGO1Q5ES8bBtPgF/fdNhV6T/DF1IBNv/lBSrqPzifiOp3EIkLoy1iaJ8eWLKIbijIgzcwGAIfp0vB+sRm4SmlONavw25khueC1SEt0W/klPESJ0I2GnEXZ6Q3vl25qJ0WG1opxQe1A7WA9aaEQ5llCEDNI1mS6dH+jj32oZIQt8BX2mjQOwl+P6ma8YRmLeTIfT2k5YFc1lvx2UybQeeIeSpbFLCuDU0k3fLO2GMeNiSl6dqB3KNwzF8kKAfBYTlQYg4xAWQ+ioi9mDopvsb18a/4bjwiYXMdNvALmI+BNpF2ogjmqtj89kTeYx7HHKGeaVr6XUT7GEfBMi0nePuMCqGYZtI/J2XZVJSK+R24xb2/ajNKLrZruL+2teX6IDOhYtb/PFW0tW6OWkW5hQb3EAfBMJXHiyegwkbUdpTXe7WadZDGePKm2C3AVxf+1ROGYWDiZG7fv8Z5ThIfS9YDo0aGIn6huPcv+4GJDE7EGaqI0LZnyYhp/05Kn0twbX2GRqwfHbWNJWQiSUNwmQLYQeJmWn4VABiLKZmbJURPP0Gg88XNrAssp1EaqMrPsn3r4dWAkuxgTsDI2TzXE5yskPmKLxzJ5F+eaZiPRWClYLyFHZgpSG9381FgAqzNh61hTBzjtrANzo1hsjyx4PkQNaPN75edDAiTUfN40rPlF+x6U/gPIj1zH4vQGfsY1pbSwdoA62Tep4mQEAb6l4q355qCzQEbdvomm+YZOv3m2XGe02zwpURoINP5de+xe1mr23E3frKsMV5d+fePBigYSfo6Zy/534RfT++2HvrMZpkyn72KgidqOZW7BVN/EXrqJVPBwRssIjR5LnONN4p/9WtOcsuAoTBeEyK6tNfRpZbUC1WnV/4LN375MRB0qbIsJtIo8DYj4EheSx33FMO70PPS/Hp3oVQy4KaZfWjSdc7lXhEd3t5HIs+kiYgGl7LOFubW2MLH/iMZMtHP26PFKVLC5BHjDTA5RNgnzF6ZzS/6Q5q+ETU2oT3QTZfDu02eZt48Un2JTpLvECI9ZnRD3SqwJFiGXMWmcI0+llPxqdYU9mG6mrHJmjV3Q1iJujAWCsRvvUDlfwphWryAZzISzAyj7rlFfN2+h2DMYllPdr4hEFfw5gDsIlgAQhsKdD+RBycpYEsxbTbu91NIUGfgJV26qEGD8q9YNApyFBR5f+a+AIm93yYWxvlEXvdNMCV+gFVXAvXVpnTBxb+ZhkDE7vMI2aCyPgfLSza9HRHmDUuif7SnN4xQ7obf3g/ywL9fjiZeqf0tdtf9KcbWR30DndV7a4CE4u+p/eq5YZhGcrU38IX6DAtYRid+LK6UbLXTo3G9fbSPOIxxgqc5iweZZ4mlR5s7Z226fATw1N/FF5N4V+SS50ZNXUHgcRv7WRBWWImIHwjKvPoxsXzt+KKffW+g6kvnkCAc+U8ah6QXGULVk66M1mj1UXWw20dicx09WDvRsVWtjDPJthck7Zs7N6YCAFhBsRE+gwdasXqADD/ZPvr1emRhYwDNIrbfbfTM+g2xik42tXI+SgkN9KprYVUbh4QLeQzhxwoMuP9zZIn7+PTDXNBUTL49fFVtLzeWSndazMewTe6jHto3dn1PA3JLyYfvn74lHEidBF2Y3HWI5zPfJmVWzcBJkZAjvbQSyOGFVSpquBGqG32yNLjVQ2jxNszByS4Zii8Jm3F+j3bu4BJl0wlfYljim5BSytKz5dIYhiXjrNDfeBpCG3jT7ljwfHPLj8BYlZVy+F0jHRgeZTCkypo3dGjRsOthNkVZrCdzEAW/8HSrNmMQT1yNvKS8PrTWw+Ws2tpraa6rZY5NLEuFTOD+Wk0HdDvRA2Pk2PAwiR1FEsKf9vN34HqA8GogH2ZWhnxtUBtShUCWS7lft50GJbD3YgJtIhde+LoSDg2pDBwOs1wGqe0Gb2LsrfqrspePwd7RXbggT+O7fPM6OfhCaUFka6Teu/dFJTJXmTF9uaj0XWkk1xof1exwabMM5wo3OqTY2pL1ixtIAqiUdqAMY/Jp8+hwmg+5GoKLz30oF+V14xLcXlQbt/lbLdGA61t4E2P0wGEI6XilljESYKGysUptV6w9ByDekm30gpl8SxOPkMsjFBv9ihwf4OAuY3WtJ8pLfzG94Apzy4Oz3G0i4eLmsi5L86E1lZozl7AJHT5yv+6OO7vaUSNJwyM3jo7rO8RNrk4zEYolcGvPULBWl/sDRqKhXjncliJWFHJvZbiJYMaVxcuOduGjCaaHQp+Oazoj8POblFOUWBFQu0bcWUyyFli/zHkp4azvPjtm1CD6QpUxgOFTgMt8hXPvYabPr8rkKZhCbz/ckssRSMit/j74QZOtLv9jSgOxkNziN/DGD+uo81PPP9MkaBtYQITuxi6hN/fa9PmrVWXaenozP7Y5HwpH+c+l/BF6JOM7WaVQyUX8LuxWceOyF+UQ32Pqc/BXj9u1erDzCYmk/+fHrHLE1CPhE6Q1WzAs+HZj70sTOBRnncWGK1MqFVAXwUdIQeOIWU28WdxoslogzUxc5uO21ITpLQxppk0Epp1wEtq1/wOEpWTQuSk003R8ykkl728nDkyYyq9A3K+04LETfA+JPn6UwRiAefMTqHQcagxqDp4TjE2NTJj2MlnceRyJFDEev3H2ADoaJPeEqVa5ovgXPYSoIKYwlRLkz/j31+mEwyrgnGtwtSQgajt7ydY7Z2mFhYmen5IgxhGmLu0OH9L705GY09JiSdOGMuu5mi6Z793w0xVkbU4Zq9nLF4xjb14guNBfs/5opgILUBqBQI7DVRqk+4NQP0mskcQ0T0u6yoTn05IbK9VTb4E+5khRYoaHLg6yHDPkjkFHvXo9OkwzlE66tLcf3FnouSzaYuPn5RmFHuOY8kmd3ywPJanOkXE0TMYF1d4bG/GFaPR2UYpBhPqMk9clvqqzxsgYl7gRyU5e2s8a2QHeqQAu7IKvuV4AIxJgZv9NIxMKB3ZWj7CYg1gU9D+hHnlTzG25JG67DtMf14oEr5d4g1h7u7gN24v/4x4y56L0APHXTjwWkKjMPmsxcBOXempwfZsGsJ+5r31If3ihoyEZ+pNUzOE9uKmepe/q8QOxyTmtUuAMqzlrwEOAyAoyRA1faZdDjLI73X+Kbfw415ymokGD8ajGQ0CirVbwOYmYvzBeNmOGHtwZlpdid6xQtAHzv9pZ2YqU6F4/DYD8Fmwsszc+nXjBi88V71dWYGsqQD9uizucAxIfBnY4DNK6q9WRDc5OF7yqD36gOM0QsiextmYu/7SaNEHzwa99u30ORp+Lb/C52CAOOHzpIbQlP4qoUulD31uxAyCRcfpr35j7G1E/ayAMHEmX2nebLoRlnf+J2Thr2Hl4Yx2i03bqeN1OT1cXIuAnjU5S2X655NexGyte30JTXTxl0IdBtMbYahufDRons+QZHm+vbu3TQ/YMtQnU+INwiVeXKmr5FfR12QoNvAaoaBOMbB908/BhuOxSv3j1nmNDlNsV7eH31vfSrouF9XFvt63GTcBrZBbDpq06OxWT8+ooYI+VLGsh6MGQ6SwKu8UPW0T4/mKGq3ooQ42vomfHjT9rtayGDGMES7NuYbsoZSba9Am1LyFTx/Owv6f7eeci0wP8sZrcUkbF0J3PxtCbE0IDxEbeJn21GbW1vqokDW+JFMzoVmvwPHp8dSovpaA0VgqMW1tVDBt4AAV04Xv+WHYjsDRtu2qUQsUgusoJgP60cYSUfT/rlAsws0y1w2lSTAaXnUmch0QAY36MUbLE4tN0AzFiSYR/hYqJfW5Niqpx0BsdYQ1NziBoYOH0D9PGHT4r25QEtmSy1juxvH89vBUwuxOrZc1c5dLHlGcLgMMeLNq5JcryCyyuz1kv2n8Q6CPBsBj6tdGZ6EuJcbnNVcfIS8f0iCP8JFWVyQnkwFfTr29Dg11aB67DlVvG9sKdp4ssEyKAD2b2yRmQ2iNETLO3zzicJDgde8+tDo/fx+K8gVQ7WNI/IM3BoPMMU6uMfPugj7pFfUBxbkNGMT0hkeaiGwh2Xy3gEo/feFNqVceSBkFw2bwWsTFJu50rVmlxt1pm4QW/PDkLpHefa6zuHIvaY+iek6uAaK4xy7y1VEkpXBQizTtSyzwJWQmUjSYl5BujIoz3nO2bDey4P9iEUPghEPj1YLVG5LM/oAUaQhsmCFMeuuU0jWKSRRegq95xJAdD6/PbV8cfkudwgKnoXE5gouNzTaaEpEkbmORkhrWvh1SH35ytRhdqSggk4l/aVs+fjrL3pP/ltdAmSNQPFzUncpCgdOZduqhSdAngHjzN6VB3fXcCD0J8BWddezivKWkm9wlDJV3ZkIEEKm8vi+PTgp4fofn0D+Hz8kFaAH5QR1rif1nD8J7UDrI4HrWNqLzvzbDQiTjoWiI+FTknGhcTUzqTtCNZPGAXxJTy+/J6PZxt+xZfoOT1kBKvb1u+raHh4rSlZdPh0kDA3JVWB7XcgezIym8xkesv3JgDSuTy4E1LWbI96VJascqGAogmR5La13i/lM0rseAtvvnrFAXI2vhzBmP1NI4EoESge7NjDzD1We10OyhqpgZ1fRo7HGto2JBdaTncCkFgAaLJnSC/c5tt/nDMSEakPaCrmBiKXhOXg8jIhjmWynP5PWau7gh4e2eRywCixkBsmNGAxUBVf+9PnpHAn1H9i36ankY+S0h3oYXyRZqaUfQwErJJOAUJ2+ptp4izObKMD3o96xi1yxIKjzEAb+nya+08+j2At5xyrCWq46L44UPxEdReqgyu+/4iPSa6LN6RuoAurX61HpKqXjZgfLDhjXq4YUwJo+H9G51O8T0N5V/LAI976L1do7mQ6oOdSBLtNXpwYDj0JWmoc6HjMWec3suJ37oDM55MpJmdsuLWzaH04H1EwphaHtLmjwPCU+deOk1zYdtGUNJWvNtiLmgd48XWit8W5TFKq0bN7X3Rf19SW4ZhS2QcPi2fn2qlQSN2bCNJMUwQeEPwQvbme98+kQWQmA9PkqkHTVvcXqBgRtU2XJg30E0fHCd/6umHTjdIV1hXSEJXC9MGZ5l22wDLVy2c1ES3Rizx51ALAO4TVz1b3Yt+UdZOkNQGaxLR6KvmGJRhwO3KoJ1S42kgNScES9b0vMrJlkXOHYrm8cjpe4DTuj28VMvcBMsERuEnZSzHV3W20ZrNwRwHmBJPjv8+b9jz2TBu6TNrGJEBC80EB9shXZRtGDp6UmJzVD9G8XrmMIDq036a7qCDNSYHMbH9PFbo2GODjKL+LmDvUkx+kMMYfoMJssFuGahm9w+9HtmXIcrF0x74IbpFpLDOE/ESylVdrWRTdmJBsArlk9yG3FVDYkhR/cS2N5Vg2kiCuzMUmH9uIAXrowbExYBbXHTrIQpnWwx+xTnQ4dWm0mIDvyIS6eHdQK6q7c5D9dSyVVcq47BjHHrPbVukuhKPX1/R951MyTTjyRn3QtV4Lr7qtg/5ZNSXRglp/30lCcJDw2TenLMy/auqqnQK3fujCOTc87FI8XCHNLeaLE7x9WvEMAt/r653DzlOcK4v+6yc4UctbQDzOH0p2XDaykMzv12NwIam4QlJiFDvIS0fcQm9vOIn4/Ph5uiplqo/zCjwnyLQhbP0Yvg3nkCYwmDTtMfoBc62hm/DLR17IxFFwBdr5vATn81snYMoGeu61MhhBKvG8KxkGiJSP0mBzOUxRVylhgkaruGFyrfT8I+aFQ9YdDULE19ISVvBgnbVC7ncnbF9ylH/Deno9j/uFsNMRCHW3cyZVTLMk/oSdjGMqbNsccOX+x6IVegCyG1htXnXc19x4vEdXnR4GWOoPwALco427QVAbSDY36ZJmbm95LWxUu3iOTeeivkB8TxcE2z9SuqQS1JoK1sWlh8h4AIja01xxatc2Tl+bY331L9hQJJP908gHnmbJ6da3n1ETcwC5bgpDHmxUhRQnbt+SvWP9w2BdXXw6KGahbK+UYi+s8vvtUYf0EWjWalQ7Tej4bChkwFnsG3kh1jmU3BQ2BVCbYDa0oxAGVNygH7CkymYrhBqcZjdPkaVBmGbGhQcRhBVewI1C+JhiXjnPftIzBFQqU27m8OBEkuGggcrVuD0tSK3yQjYyi3aTICJ8lVKtXowNYAAAAAAAAAAAAAAAAAAAAAAAAAAAAAAARVhJRroAAABFeGlmAABJSSoACAAAAAYAEgEDAAEAAAABAAAAGgEFAAEAAABWAAAAGwEFAAEAAABeAAAAKAEDAAEAAAACAAAAEwIDAAEAAAABAAAAaYcEAAEAAABmAAAAAAAAAEgAAAABAAAASAAAAAEAAAAGAACQBwAEAAAAMDIxMAGRBwAEAAAAAQIDAACgBwAEAAAAMDEwMAGgAwABAAAA//8AAAKgBAABAAAAWAIAAAOgBAABAAAATgIAAAAAAAA=;" vertex="1" parent="7">
                    <mxGeometry x="460" y="150" width="271.69" height="267.17" as="geometry"/>
                </mxCell>
                <mxCell id="12" value="Number..." style="rounded=1;whiteSpace=wrap;html=1;align=left;" vertex="1" parent="7">
                    <mxGeometry x="30" y="140" width="300" height="20" as="geometry"/>
                </mxCell>
                <mxCell id="11" value="Number..." style="rounded=1;whiteSpace=wrap;html=1;align=left;" vertex="1" parent="7">
                    <mxGeometry x="30" y="180" width="300" height="20" as="geometry"/>
                </mxCell>
                <mxCell id="13" value="Please enter in a number and what you want it to be multiplied by:" style="text;html=1;align=left;verticalAlign=middle;resizable=0;points=[];autosize=1;strokeColor=none;fillColor=none;fontSize=20;fontColor=light-dark(#000000,#FFFFFF);" vertex="1" parent="1">
                    <mxGeometry x="75" y="110" width="610" height="40" as="geometry"/>
                </mxCell>
                <mxCell id="14" value="" style="whiteSpace=wrap;html=1;" vertex="1" parent="1">
                    <mxGeometry x="45" y="43" width="760" height="55" as="geometry"/>
                </mxCell>
                <mxCell id="15" value="Multiplication with Addition, in JavaScript" style="text;html=1;align=center;verticalAlign=middle;resizable=0;points=[];autosize=1;strokeColor=none;fillColor=none;fontSize=30;fontStyle=1" vertex="1" parent="1">
                    <mxGeometry x="140" y="43" width="570" height="50" as="geometry"/>
                </mxCell>
            </root>
        </mxGraphModel>
    </diagram>
</mxfile>